<?xml version="1.0" encoding="UTF-8" standalone="no"?>
<svg viewBox="0 0 18 16" version="1.1" xmlns="http://www.w3.org/2000/svg" xmlns:xlink="http://www.w3.org/1999/xlink">
    <!-- Generator: Sketch 3.8.3 (29802) - http://www.bohemiancoding.com/sketch -->
    <title>dambrudd</title>
    <desc>Created with Sketch.</desc>
    <defs></defs>
    <g id="Flom-og-jordskred" stroke="none" stroke-width="1" fill="none" fill-rule="evenodd">
        <g id="Desktop-HD-1280-flom-og-jordskred-felles-aust-agder" transform="translate(-505.000000, -323.000000)" fill="#69797A">
            <g id="årsaker" transform="translate(505.000000, 221.000000)">
                <g id="dambrudd" transform="translate(0.000000, 102.000000)">
                    <path d="M5.45652288,1.40992 L1.43979085,14.0061867 L16.5027974,13.9880533 L12.4923399,1.38965333 L9.75142484,6.53952 L8.1911634,6.53952 L5.45652288,1.40992 Z M-0.000209150327,15.0749867 L4.47979085,1.02485333 C4.576,0.770986667 4.83639216,0.08192 5.43456209,0.08192 C5.72109804,0.08192 6.11743791,0.226986667 6.37783007,0.916053333 L8.81233987,5.47285333 L9.13024837,5.47285333 L11.5929935,0.85312 C11.6494641,0.688853333 11.910902,-0.000213333333 12.5090719,-0.000213333333 C13.0905098,-0.000213333333 13.3446275,0.67072 13.4523399,0.956586667 L17.9417516,15.0525867 L-0.000209150327,15.0749867 Z" id="Fill-1"></path>
                    <path d="M4.72784314,7.60618667 C4.72784314,6.53952 6.60078431,5.47285333 8.91084967,5.47285333 C11.220915,5.47285333 13.0938562,6.53952 13.0938562,7.60618667 L4.72784314,7.60618667 Z" id="Fill-4"></path>
                    <path d="M13.108183,11.9082667 C15.0585098,10.5813333 11.2833464,11.1104 11.3324967,9.52746667 C11.3471373,9.05493333 11.0564183,8.2624 10.072366,8.23893333 C9.70739869,8.2304 9.55681046,7.7056 9.59236601,7.40586667 C9.62583007,7.10613333 9.75654902,6.608 9.69798693,6.11413333 C9.65929412,5.78773333 9.46373856,5.47306667 9.41772549,5.47306667 L8.57694118,5.47306667 C8.53197386,5.47306667 8.33537255,5.78773333 8.29667974,6.11413333 C8.2391634,6.608 8.3688366,7.01013333 8.40334641,7.30986667 C8.43785621,7.61066667 8.28831373,8.18346667 7.92230065,8.192 C6.93824837,8.2144 6.64752941,9.03146667 6.66216993,9.50293333 C6.71132026,11.0858667 2.93615686,10.5696 4.88752941,11.8965333 L13.108183,11.9082667 Z" id="Fill-6"></path>
                </g>
            </g>
        </g>
    </g>
</svg>