<?xml version="1.0" encoding="UTF-8" standalone="no"?>
<svg viewBox="0 0 16 16" version="1.1" xmlns="http://www.w3.org/2000/svg" xmlns:xlink="http://www.w3.org/1999/xlink">
    <!-- Generator: Sketch 3.8.3 (29802) - http://www.bohemiancoding.com/sketch -->
    <title>intens regn</title>
    <desc>Created with Sketch.</desc>
    <defs></defs>
    <g id="Flom-og-jordskred" stroke="none" stroke-width="1" fill="none" fill-rule="evenodd">
        <g id="Desktop-HD-1280-flom-og-jordskred-felles-aust-agder" transform="translate(-506.000000, -221.000000)" fill="#69797A">
            <g id="årsaker" transform="translate(505.000000, 221.000000)">
                <path d="M9.999,1.062 C13.946,1.553 17.001,4.92 17.001,9 L16.733,9 C16.387,8.402 15.741,8 15.001,8 C14.261,8 13.615,8.402 13.269,9 L12.732,9 C12.386,8.402 11.74,8 11,8 C10.636,8 10.294,8.098 10,8.268 L10,13.5 C10,14.879 8.878,16 7.5,16 C6.122,16 5,14.879 5,13.5 C5,12.948 5.448,12.5 6,12.5 C6.552,12.5 7,12.948 7,13.5 C7,13.776 7.224,14 7.5,14 C7.776,14 8,13.776 8,13.5 L8,8.268 C7.706,8.098 7.364,8 7,8 C6.26,8 5.614,8.402 5.268,9 L4.732,9 C4.386,8.402 3.74,8 3,8 C2.26,8 1.614,8.402 1.268,9 L1,9 C1,4.92 4.055,1.553 8.002,1.062 C8.001,1.042 8,1.021 8,1 C8,0.448 8.448,0 9,0 C9.552,0 10,0.448 10,1 C10,1.021 9.999,1.041 9.998,1.062 L9.999,1.062 Z" id="intens-regn"></path>
            </g>
        </g>
    </g>
</svg>