<?xml version="1.0" encoding="UTF-8" standalone="no"?>
<svg viewBox="0 0 16 17" version="1.1" xmlns="http://www.w3.org/2000/svg" xmlns:xlink="http://www.w3.org/1999/xlink">
    <!-- Generator: Sketch 3.8.3 (29802) - http://www.bohemiancoding.com/sketch -->
    <title>vannfylt jord</title>
    <desc>Created with Sketch.</desc>
    <defs></defs>
    <g id="Flom-og-jordskred" stroke="none" stroke-width="1" fill="none" fill-rule="evenodd">
        <g id="Desktop-HD-1280-flom-og-jordskred-felles-aust-agder" transform="translate(-533.000000, -287.000000)">
            <g id="årsaker" transform="translate(505.000000, 221.000000)">
                <g id="vannfylt-jord" transform="translate(28.000000, 66.000000)">
                    <path d="M16,12.0472688 C16,14.2477726 14.209,16.0318841 12,16.0318841 L4,16.0318841 C1.791,16.0318841 0,14.2477726 0,12.0472688 L0,7.06649966 C0,4.86599584 1.791,3.08188433 4,3.08188433 L12,3.08188433 C14.209,3.08188433 16,4.86599584 16,7.06649966 L16,12.0472688 Z" id="Fill-1" fill="#69797A"></path>
                    <path d="M7.97226319,0.652987197 C6.24936549,2.11281665 4.62312544,4.03600495 3.85484659,6.17841678 C3.37953011,7.50272624 3.33269599,8.94063334 4.00132777,10.2111334 C4.77060309,11.6729558 6.32111138,12.6106346 7.97226319,12.6106346 C9.62341501,12.6106346 11.1739233,11.6729558 11.9422021,10.2111334 C12.6118304,8.94063334 12.5639998,7.50372271 12.0896798,6.17841678 C11.3223974,4.03600495 9.69516089,2.11281665 7.97226319,0.652987197" id="Fill-3" fill="#FFFFFF"></path>
                    <path d="M7.97226319,1.31275039 C6.22345726,2.8692375 4.93402427,4.64395168 4.32318778,6.34691996 C3.99136307,7.27064823 3.74324188,8.65175651 4.44276426,9.97905537 C5.12435016,11.2754636 6.50944432,12.112499 7.97226319,12.112499 C9.43508206,12.112499 10.8201762,11.2754636 11.5017621,9.97905537 C12.200288,8.65275298 11.9521668,7.27064823 11.6213386,6.34592349 C11.0114986,4.64494815 9.7220656,2.8692375 7.97226319,1.31275039 M7.97226319,13.1089696 C6.14373961,13.1089696 4.41187367,12.0626754 3.56088776,10.4434107 C2.87332303,9.13903064 2.81353479,7.60546236 3.38550893,6.0101129 C4.29030425,3.48804576 6.20352784,1.49809393 7.65040318,0.273431538 L7.97226319,0.000398588248 L8.2941232,0.273431538 C9.74099854,1.4990904 11.6552186,3.4900387 12.5590175,6.0101129 C13.1309916,7.60645883 13.0702069,9.13903064 12.3836386,10.4434107 C11.5316562,12.0626754 9.79979031,13.1089696 7.97226319,13.1089696" id="Fill-5" fill="#69797A"></path>
                    <path d="M3.31495881,13.599831 C3.31495881,13.957564 3.02299292,14.2505263 2.6642635,14.2505263 C2.30553407,14.2505263 2.01356818,13.957564 2.01356818,13.599831 C2.01356818,13.2420981 2.30553407,12.9491357 2.6642635,12.9491357 C3.02299292,12.9491357 3.31495881,13.2420981 3.31495881,13.599831" id="Fill-7" fill="#FFFFFF"></path>
                    <path d="M2.64343726,5.98131489 C2.64343726,6.33904785 2.35147137,6.63201021 1.99274195,6.63201021 C1.63401252,6.63201021 1.34204663,6.33904785 1.34204663,5.98131489 C1.34204663,5.62258547 1.63401252,5.33061958 1.99274195,5.33061958 C2.35147137,5.33061958 2.64343726,5.62258547 2.64343726,5.98131489" id="Fill-9" fill="#FFFFFF"></path>
                    <path d="M8.49770215,8.93614922 C8.49770215,9.29388218 8.20673273,9.58684454 7.84700684,9.58684454 C7.48827741,9.58684454 7.19631152,9.29388218 7.19631152,8.93614922 C7.19631152,8.57841627 7.48827741,8.28545391 7.84700684,8.28545391 C8.20673273,8.28545391 8.49770215,8.57841627 8.49770215,8.93614922" id="Fill-11" fill="#FFFFFF"></path>
                    <path d="M14.2478359,9.71120407 C14.2478359,10.068937 13.95587,10.3618994 13.5971405,10.3618994 C13.2394076,10.3618994 12.9464452,10.068937 12.9464452,9.71120407 C12.9464452,9.35247465 13.2394076,9.06050876 13.5971405,9.06050876 C13.95587,9.06050876 14.2478359,9.35247465 14.2478359,9.71120407" id="Fill-13" fill="#FFFFFF"></path>
                    <path d="M12.4456191,11.6340934 C12.4456191,11.9918264 12.1536532,12.2847887 11.7949238,12.2847887 C11.4371908,12.2847887 11.1442285,11.9918264 11.1442285,11.6340934 C11.1442285,11.275364 11.4371908,10.9833981 11.7949238,10.9833981 C12.1536532,10.9833981 12.4456191,11.275364 12.4456191,11.6340934" id="Fill-15" fill="#FFFFFF"></path>
                    <path d="M14.8984315,12.6106346 C14.8984315,12.9683676 14.6064656,13.2613299 14.2477362,13.2613299 C13.8900033,13.2613299 13.5970409,12.9683676 13.5970409,12.6106346 C13.5970409,12.2519052 13.8900033,11.9599393 14.2477362,11.9599393 C14.6064656,11.9599393 14.8984315,12.2519052 14.8984315,12.6106346" id="Fill-17" fill="#FFFFFF"></path>
                    <path d="M3.29303646,10.277598 C3.29303646,10.6363274 3.00107057,10.9282933 2.64333761,10.9282933 C2.28460819,10.9282933 1.9926423,10.6363274 1.9926423,10.277598 C1.9926423,9.91886855 2.28460819,9.62789913 2.64333761,9.62789913 C3.00107057,9.62789913 3.29303646,9.91886855 3.29303646,10.277598" id="Fill-19" fill="#FFFFFF"></path>
                    <path d="M1.992443,8.56197451 C1.992443,8.92070393 1.70047711,9.21266982 1.34274416,9.21266982 C0.984014737,9.21266982 0.692048845,8.92070393 0.692048845,8.56197451 C0.692048845,8.20324508 0.984014737,7.91227566 1.34274416,7.91227566 C1.70047711,7.91227566 1.992443,8.20324508 1.992443,8.56197451" id="Fill-21" fill="#FFFFFF"></path>
                    <path d="M6.97579257,14.5963016 C6.97579257,14.9550311 6.68482315,15.246997 6.32509726,15.246997 C5.96636784,15.246997 5.67440194,14.9550311 5.67440194,14.5963016 C5.67440194,14.2385687 5.96636784,13.9456063 6.32509726,13.9456063 C6.68482315,13.9456063 6.97579257,14.2385687 6.97579257,14.5963016" id="Fill-23" fill="#FFFFFF"></path>
                    <path d="M9.79879384,13.413491 C9.79879384,13.7722204 9.50782442,14.0641863 9.14809852,14.0641863 C8.7893691,14.0641863 8.49740321,13.7722204 8.49740321,13.413491 C8.49740321,13.0557581 8.7893691,12.7627957 9.14809852,12.7627957 C9.50782442,12.7627957 9.79879384,13.0557581 9.79879384,13.413491" id="Fill-25" fill="#FFFFFF"></path>
                    <path d="M5.48347817,12.6106346 C5.48347817,12.9693641 5.19250875,13.2613299 4.83278286,13.2613299 C4.47405344,13.2613299 4.18208754,12.9693641 4.18208754,12.6106346 C4.18208754,12.2529017 4.47405344,11.9599393 4.83278286,11.9599393 C5.19250875,11.9599393 5.48347817,12.2529017 5.48347817,12.6106346" id="Fill-27" fill="#FFFFFF"></path>
                    <path d="M12.4456191,14.250327 C12.4456191,14.60806 12.1536532,14.9010224 11.7949238,14.9010224 C11.4371908,14.9010224 11.1442285,14.60806 11.1442285,14.250327 C11.1442285,13.8925941 11.4371908,13.5996317 11.7949238,13.5996317 C12.1536532,13.5996317 12.4456191,13.8925941 12.4456191,14.250327" id="Fill-29" fill="#FFFFFF"></path>
                    <path d="M14.2478359,6.07129619 C14.2478359,6.43002561 13.95587,6.72199151 13.5971405,6.72199151 C13.2394076,6.72199151 12.9464452,6.43002561 12.9464452,6.07129619 C12.9464452,5.71256677 13.2394076,5.42060088 13.5971405,5.42060088 C13.95587,5.42060088 14.2478359,5.71256677 14.2478359,6.07129619" id="Fill-31" fill="#FFFFFF"></path>
                </g>
            </g>
        </g>
    </g>
</svg>