<?xml version="1.0" encoding="UTF-8" standalone="no"?>
<svg viewBox="0 0 16 16" version="1.1" xmlns="http://www.w3.org/2000/svg" xmlns:xlink="http://www.w3.org/1999/xlink">
    <!-- Generator: Sketch 3.8.3 (29802) - http://www.bohemiancoding.com/sketch -->
    <title>isgang</title>
    <desc>Created with Sketch.</desc>
    <defs></defs>
    <g id="Flom-og-jordskred" stroke="none" stroke-width="1" fill="none" fill-rule="evenodd">
        <g id="Desktop-HD-1280-flom-og-jordskred-felles-aust-agder" transform="translate(-561.000000, -253.000000)" fill="#69797A">
            <g id="årsaker" transform="translate(505.000000, 221.000000)">
                <g id="isgang" transform="translate(56.000000, 32.000000)">
                    <path d="M14.2314,15.2041 C14.8084,14.7631 15.2784,14.1751 15.5884,13.5381 L13.6434,12.8891 L14.2314,15.2041 Z" id="Fill-6"></path>
                    <path d="M1.5527,0.8359 C2.2287,0.3119 3.0777,-0.0001 3.9997,-0.0001 L11.9997,-0.0001 C12.9667,-0.0001 13.8527,0.3429 14.5437,0.9139 L11.6247,4.7809 L2.6407,2.2189 C2.6407,2.2189 2.4347,2.1449 2.3437,2.1719 L1.5527,0.8359 Z" id="Fill-8"></path>
                    <path d="M0.3613,1.8936 C0.0563,2.4576 0.0003,3.3136 0.0003,3.9996 L0.0003,5.9996 L0.0003,6.1986 L0.0003,5.9996 L0.0003,6.4386 L3.0493,6.7666 L0.3613,1.8936 Z" id="Fill-1"></path>
                    <path d="M12.7793,15.9077 C12.5273,15.9677 12.2663,15.9997 12.0003,15.9997 L4.0003,15.9997 C1.7913,15.9997 0.0003,14.2087 0.0003,11.9997 L0.0003,7.9997 L5.9873,8.8247 L3.3553,4.0517 L12.2183,6.6037 L15.5723,2.1997 C15.8453,2.7407 16.0003,3.3527 16.0003,3.9997 L16.0003,11.9997 C16.0003,12.0377 15.9993,12.0747 15.9983,12.1127 L11.3923,10.6877 L12.7793,15.9077 Z" id="Fill-3"></path>
                </g>
            </g>
        </g>
    </g>
</svg>