<?xml version="1.0" encoding="UTF-8" standalone="no"?>
<svg viewBox="0 0 15 16" version="1.1" xmlns="http://www.w3.org/2000/svg" xmlns:xlink="http://www.w3.org/1999/xlink">
    <!-- Generator: Sketch 3.8.3 (29802) - http://www.bohemiancoding.com/sketch -->
    <title>frost og is</title>
    <desc>Created with Sketch.</desc>
    <defs></defs>
    <g id="Flom-og-jordskred" stroke="none" stroke-width="1" fill="none" fill-rule="evenodd">
        <g id="Desktop-HD-1280-flom-og-jordskred-felles-aust-agder" transform="translate(-561.000000, -221.000000)" fill="#69797A">
            <g id="årsaker" transform="translate(505.000000, 221.000000)">
                <path d="M69.7787085,10.6712775 L67.6848087,10.2426118 L68.9486481,9.90513349 C69.4028803,9.78326631 69.6730335,9.31710302 69.5511663,8.86116636 C69.4301513,8.40693413 68.963988,8.136781 68.5071991,8.25864818 L67.2220543,8.60209207 C67.2535864,8.40522969 67.2825618,8.20666288 67.2825618,8.00042611 C67.2825618,7.79418934 67.2535864,7.59477031 67.2220543,7.39790793 L68.5089036,7.74220403 C68.5830466,7.76180505 68.6571895,7.77117945 68.7304803,7.77117945 C69.1063084,7.77117945 69.4514568,7.51977512 69.5528707,7.13968586 C69.6747379,6.68545363 69.4045848,6.21758591 68.9503525,6.09571873 L67.6865131,5.75738815 L69.7787085,5.32957468 C69.9627876,5.29207709 70.1366401,5.19662866 70.2704383,5.04578607 C70.5993945,4.67421899 70.566158,4.10664175 70.1945909,3.77768558 C69.8230238,3.44872941 69.2554466,3.48196591 68.9264904,3.85353299 L67.5092518,5.45058965 L67.8484346,4.19015913 C67.971154,3.7359269 67.7010008,3.26805918 67.2467686,3.14533977 C66.7942408,3.02432481 66.3246687,3.2927735 66.2019493,3.74700573 L65.8550965,5.03982054 C65.5431847,4.78500734 65.1980364,4.57621391 64.8162427,4.42878018 L65.755387,3.48963587 C66.0886043,3.15641861 66.0886043,2.61781679 65.755387,2.28459952 C65.4221697,1.95138226 64.8835679,1.95138226 64.5503507,2.28459952 L63.6248418,3.21010835 L64.3006508,1.18268156 C64.3594538,1.00456799 64.3645671,0.806853394 64.3006508,0.614252111 C64.1438426,0.143827737 63.6350684,-0.110985465 63.1646441,0.0466748772 C62.6942197,0.20433522 62.4402587,0.711404971 62.5962146,1.18268156 L63.2720235,3.21010835 L62.3465147,2.28459952 C62.0132975,1.95138226 61.4746956,1.95138226 61.1414784,2.28459952 C60.8082611,2.61781679 60.8082611,3.15641861 61.1414784,3.48963587 L62.0806227,4.42878018 C61.6996812,4.57621391 61.3536807,4.78585956 61.0417689,5.03982054 L60.6966205,3.74871017 C60.5747534,3.29362572 60.1026246,3.02262037 59.6535056,3.14533977 C59.1984212,3.26720696 58.9282681,3.73337024 59.0501352,4.18845469 L59.3876136,5.45399852 L57.9712272,3.85438521 C57.8468033,3.71462144 57.6772119,3.61150306 57.4786451,3.57059659 C56.9928808,3.47088708 56.5181954,3.78365111 56.4184858,4.26941541 C56.3187763,4.7551797 56.6323926,5.23071739 57.1190091,5.3304269 L59.2103522,5.75909259 L57.9490695,6.09657094 C57.4948373,6.21843813 57.2246841,6.68545363 57.3465513,7.14053808 C57.4479653,7.52147955 57.7922614,7.77203167 58.1689418,7.77203167 C58.2422325,7.77203167 58.3163755,7.76265727 58.3905185,7.74305625 L59.6756633,7.39876015 C59.6424268,7.59562253 59.6134514,7.79504155 59.6134514,8.00042611 C59.6134514,8.20581066 59.6424268,8.40522969 59.6739589,8.60294428 L58.388814,8.25864818 C57.935434,8.13763322 57.4675663,8.40608191 57.3448469,8.86116636 C57.2221275,9.31539859 57.4931328,9.78326631 57.9473651,9.90513349 L59.2112045,10.2434641 L57.1190091,10.6712775 C56.93493,10.7087751 56.7610775,10.8042236 56.6272793,10.9559184 C56.2974709,11.3274854 56.3315596,11.8950627 56.7031267,12.2231666 C57.0746938,12.552975 57.6431232,12.5188863 57.9712272,12.1473192 L59.3901702,10.5468537 L59.0509875,11.8115453 C58.9282681,12.2657775 59.1984212,12.7336453 59.6535056,12.8555124 C59.7276486,12.8751135 59.8017916,12.8844879 59.8750823,12.8844879 C60.2509105,12.8844879 60.5952066,12.6339357 60.6974728,12.2529943 L61.0434733,10.9618839 C61.3553851,11.2158449 61.7005334,11.4254905 62.0831793,11.572072 L61.1423306,12.5112163 C60.8091133,12.8435814 60.8091133,13.3830354 61.1423306,13.7162527 C61.4755479,14.04947 62.0141497,14.04947 62.3473669,13.7162527 L62.9490329,13.1137345 L63.1637919,13.1137345 L62.5962146,14.8173184 C62.5374116,14.995432 62.5322983,15.1931466 62.5962146,15.3857479 C62.7530227,15.8561723 63.2617969,16.1109855 63.7322213,15.9533251 C64.2034979,15.796517 64.4574589,15.288595 64.3006508,14.8173184 L63.7330735,13.1137345 L63.9478325,13.1137345 L64.5503507,13.7162527 C64.7173854,13.8824352 64.934701,13.9659526 65.1528688,13.9659526 C65.3710367,13.9659526 65.5892045,13.8824352 65.755387,13.7162527 C66.0886043,13.3838876 66.0886043,12.8444336 65.755387,12.5112163 L64.8162427,11.5712198 C65.1980364,11.4246383 65.5440369,11.2149927 65.8559487,10.9601795 L66.2019493,12.2529943 C66.3042154,12.6339357 66.6476593,12.8844879 67.0243397,12.8844879 C67.0976305,12.8844879 67.1717734,12.8751135 67.2459164,12.8555124 C67.7001486,12.7336453 67.971154,12.2666298 67.8484346,11.8115453 L67.510104,10.5502626 L68.9264904,12.1473192 C69.0509143,12.2879352 69.2205057,12.3902014 69.4182203,12.4311078 C69.9039846,12.5308174 70.3795222,12.2172011 70.4783795,11.7314368 C70.578089,11.2456725 70.2644728,10.770987 69.7787085,10.6712775 L69.7787085,10.6712775 Z M63.4484327,10.1309713 C62.273224,10.1309713 61.3178875,9.17563483 61.3178875,8.00042611 C61.3178875,6.82521739 62.273224,5.86988094 63.4484327,5.86988094 C64.6236414,5.86988094 65.5789779,6.82521739 65.5789779,8.00042611 C65.5789779,9.17563483 64.6236414,10.1309713 63.4484327,10.1309713 L63.4484327,10.1309713 Z" id="frost-og-is"></path>
            </g>
        </g>
    </g>
</svg>