<?xml version="1.0" encoding="UTF-8" standalone="no"?>
<svg viewBox="0 0 18 16" version="1.1" xmlns="http://www.w3.org/2000/svg" xmlns:xlink="http://www.w3.org/1999/xlink">
    <!-- Generator: Sketch 3.8.3 (29802) - http://www.bohemiancoding.com/sketch -->
    <title>regn</title>
    <desc>Created with Sketch.</desc>
    <defs></defs>
    <g id="Flom-og-jordskred" stroke="none" stroke-width="1" fill="none" fill-rule="evenodd">
        <g id="Desktop-HD-1280-flom-og-jordskred-felles-aust-agder" transform="translate(-532.000000, -221.000000)" fill="#69797A">
            <g id="årsaker" transform="translate(505.000000, 221.000000)">
                <g id="regn" transform="translate(27.200000, 0.000000)">
                    <path d="M13.3333333,12.4444444 C12.8426667,12.4444444 12.4444444,12.0471111 12.4444444,11.5555556 C12.4444444,11.064 12.8426667,10.6666667 13.3333333,10.6666667 C14.8035556,10.6666667 16,9.47022222 16,8 C16,6.52977778 14.8035556,5.33333333 13.3333333,5.33333333 C13.1173333,5.33333333 12.8888889,5.36977778 12.6133333,5.44888889 L11.6577778,5.72177778 L11.4933333,4.74133333 C11.2035556,3.024 9.73511111,1.77777778 8,1.77777778 C6.03911111,1.77777778 4.44444444,3.37244444 4.44444444,5.33333333 C4.44444444,5.57511111 4.46844444,5.81777778 4.51733333,6.05422222 L4.73422222,7.12 L3.472,7.10577778 C2.57511111,7.11111111 1.77777778,7.90844444 1.77777778,8.88888889 C1.77777778,9.86933333 2.57511111,10.6666667 3.55555556,10.6666667 C4.04622222,10.6666667 4.44444444,11.064 4.44444444,11.5555556 C4.44444444,12.0471111 4.04622222,12.4444444 3.55555556,12.4444444 C1.59466667,12.4444444 0,10.8497778 0,8.88888889 C0,7.23466667 1.13511111,5.84088889 2.66755556,5.44533333 C2.66666667,5.408 2.66666667,5.37066667 2.66666667,5.33333333 C2.66666667,2.392 5.05866667,0 8,0 C10.2995556,0 12.288,1.456 13.0222222,3.56888889 C15.6346667,3.352 17.7777778,5.44711111 17.7777778,8 C17.7777778,10.4506667 15.784,12.4444444 13.3333333,12.4444444 L13.3333333,12.4444444 Z" id="Shape"></path>
                    <path d="M7.55555556,12.4444444 L8.44444444,9.77777778 L9.33333333,12.4444444 C9.49688889,12.936 9.232,13.4657778 8.74044444,13.6293333 C8.24977778,13.7937778 7.71911111,13.528 7.55555556,13.0373333 C7.48888889,12.8364444 7.49333333,12.6302222 7.55555556,12.4444444 L7.55555556,12.4444444 Z" id="Shape"></path>
                    <path d="M10.2222222,14.2222222 L11.1111111,11.5555556 L12,14.2222222 C12.1635556,14.7137778 11.8986667,15.2435556 11.4071111,15.4071111 C10.9164444,15.5715556 10.3857778,15.3057778 10.2222222,14.8151111 C10.1555556,14.6142222 10.16,14.408 10.2222222,14.2222222 L10.2222222,14.2222222 Z" id="Shape"></path>
                    <path d="M4.88888889,14.2222222 L5.77777778,11.5555556 L6.66666667,14.2222222 C6.83022222,14.7137778 6.56533333,15.2435556 6.07377778,15.4071111 C5.58311111,15.5715556 5.05244444,15.3057778 4.88888889,14.8151111 C4.82222222,14.6142222 4.82666667,14.408 4.88888889,14.2222222 L4.88888889,14.2222222 Z" id="Shape"></path>
                </g>
            </g>
        </g>
    </g>
</svg>