<?xml version="1.0" encoding="UTF-8" standalone="no"?>
<svg viewBox="0 0 16 16" version="1.1" xmlns="http://www.w3.org/2000/svg" xmlns:xlink="http://www.w3.org/1999/xlink">
    <!-- Generator: Sketch 3.8.3 (29802) - http://www.bohemiancoding.com/sketch -->
    <title>Varmere@2x</title>
    <desc>Created with Sketch.</desc>
    <defs></defs>
    <g id="Flom-og-jordskred" stroke="none" stroke-width="1" fill="none" fill-rule="evenodd">
        <g id="Tablet-Portrait" transform="translate(-86.000000, -257.000000)" fill="#69797A">
            <g id="Varmere" transform="translate(86.000000, 257.000000)">
                <polygon id="Fill-141-Copy" points="7.90739444 4 10.54695 4 10.54695 16 13.2136167 16 13.2136167 4 15.8536167 4 11.8802833 0"></polygon>
                <g id="kaldere">
                    <path d="M6.4008,7.8936 L6.4008,0.8 C6.4008,0.3584 6.0424,0 5.6008,0 L2.88,0 C2.4376,0 2.24,0.3584 2.24,0.8 L2.24,7.8936 C0.9048,8.6288 0,10.0488 0,11.68 C0,14.0656 1.9344,16 4.32,16 C6.7056,16 8.64,14.0656 8.64,11.68 C8.64,10.0488 7.7352,8.6288 6.4008,7.8936 L6.4008,7.8936 Z M1.6,11.68 C1.6,10.4368 2.4352,9.392 3.5744,9.0664 L3.5744,7.2 L5.1744,7.2 L5.1744,9.0984 C6.2576,9.4568 7.0408,10.4768 7.0408,11.68 C7.04,13.1824 5.8224,14.4 4.32,14.4 C2.8176,14.4 1.6,13.1824 1.6,11.68 Z" id="Shape-Copy"></path>
                </g>
            </g>
        </g>
    </g>
</svg>