<?xml version="1.0" encoding="utf-8"?>
<!-- Generator: Adobe Illustrator 21.1.0, SVG Export Plug-In . SVG Version: 6.00 Build 0)  -->
<svg version="1.1" id="Layer_1" xmlns="http://www.w3.org/2000/svg" xmlns:xlink="http://www.w3.org/1999/xlink" x="0px" y="0px"
	 width="190px" height="32px" viewBox="0 0 190 32" enable-background="new 0 0 190 32" xml:space="preserve">
<title>Artboard 1</title>
<path fill="#F1F3F3" d="M176.9,5.2h3.5c1.3,0,2.3,1,2.3,2.3s-1,2.3-2.3,2.3l0,0h-3.5V5.2z M189.9,23.1l-5.5-9.9
	c2.7-1.2,3.4-3.4,3.4-6.2c0-2.9-1.7-6.1-7-6.1h-9.3v22.1h5.3V14h2.9l4.4,9.1L189.9,23.1L189.9,23.1z M129.9,23.1l-12.3-14v14h-5.3V1
	h4.3l10.9,12.5V1h5.3v22.1 M65.6,23.1l-12.3-14v14H48V1h4.3l10.9,12.5V1h5.3v22.1 M10.9,16.5c0,1.4-1.1,2.5-2.5,2.5c0,0,0,0,0,0H5.3
	v-5h3.2C9.8,14,10.9,15.1,10.9,16.5L10.9,16.5z M5.3,5.1h2.3c1.3,0,2.3,1.1,2.3,2.3c0,0,0,0,0,0l0,0c0,1.3-1,2.3-2.3,2.4
	c0,0,0,0,0,0H5.3V5.1z M16.4,17c0-4.5-3.3-5.7-3.3-5.7c1.3-0.9,2-2.5,1.9-4.1C15,3.9,13.2,1,8,1H0v22.1h10.1
	c3.4,0.1,6.2-2.5,6.3-5.9C16.4,17.2,16.4,17.1,16.4,17z M78.4,23.1V1h13.1v4.4h-7.8v4.1h6.3v4.4h-6.3v4.9h8v4.4"/>
<g>
	<path fill="#F1F3F3" d="M152.2,18.6c-3.7,0-6.7-2.9-6.7-6.6c0-3.7,2.9-6.7,6.6-6.7c3.7,0,6.7,2.9,6.7,6.6c0,0,0,0.1,0,0.1
		C158.8,15.6,155.8,18.6,152.2,18.6C152.2,18.6,152.2,18.6,152.2,18.6 M152.2,0.3c-6.4,0-11.6,5.3-11.6,11.7
		c0,6.4,5.2,11.6,11.6,11.6c6.4,0,11.6-5.2,11.6-11.6c0,0,0,0,0,0C163.8,5.6,158.6,0.3,152.2,0.3C152.2,0.3,152.2,0.3,152.2,0.3"/>
</g>
<path fill="#F1F3F3" d="M26.9,13.9V9.5c0-2.4,2-4.4,4.4-4.5c0,0,0,0,0,0l0,0c2.4,0,4.4,2,4.4,4.4c0,0,0,0,0,0v4.4H26.9z"/>
<g>
	<path fill="#F1F3F3" d="M25.1,17.7L15,31.9h6.6l7.7-14.2"/>
</g>
<g>
	<path fill="#F1F3F3" d="M37.5,17.7h-4.2L41,31.9h6.6"/>
</g>
</svg>
