<?xml version="1.0" encoding="UTF-8" standalone="no"?>
<svg width="47px" height="48px" viewBox="0 0 47 48" version="1.1" xmlns="http://www.w3.org/2000/svg" xmlns:xlink="http://www.w3.org/1999/xlink">
    <!-- Generator: Sketch 3.6.1 (26313) - http://www.bohemiancoding.com/sketch -->
    <title>NVELogoNeg graa transp.svg</title>
    <desc>Created with Sketch.</desc>
    <defs></defs>
    <g id="Page-1" stroke="none" stroke-width="1" fill="none" fill-rule="evenodd" opacity="0.55">
        <g id="Desktop-HD-1280-forside-graa-kartfokus-vinterhalv" transform="translate(-10.000000, -9.000000)">
            <g id="NVELogoNeg-graa-transp" transform="translate(10.000000, 9.000000)">
                <path d="M8.96417391,42.1391304 L10.6114783,42.1391304 L12.2525217,45.4344348 L12.2664348,45.4344348 L12.2455652,42.1391304 L13.4274783,42.1391304 L13.4274783,46.9926957 L11.8212174,46.9926957 L10.1252174,43.6758261 L10.1113043,43.6758261 L10.1530435,46.9926957 L8.96417391,46.9926957 L8.96417391,42.1391304" id="Fill-1" fill="#FFFFFF"></path>
                <path d="M17.728,42.1391304 L19.1046957,42.1391304 L20.1829565,45.949913 L20.1968696,45.949913 L21.2813913,42.1391304 L22.6093913,42.1391304 L20.9544348,46.9926957 L19.3551304,46.9926957 L17.728,42.1391304" id="Fill-2" fill="#FFFFFF"></path>
                <path d="M27.2716522,42.1391304 L30.6928696,42.1391304 L30.6928696,43.0566957 L28.5655652,43.0566957 L28.5655652,44.0584348 L30.5746087,44.0584348 L30.5746087,44.976 L28.5655652,44.976 L28.5655652,46.0744348 L30.7693913,46.0744348 L30.7693913,46.9926957 L27.2716522,46.9926957 L27.2716522,42.1391304" id="Fill-3" fill="#FFFFFF"></path>
                <path d="M0.13773913,0.596173913 L39.5763478,0.596173913 L39.5763478,40.0361739 L0.13773913,40.0361739 L0.13773913,0.596173913 Z" id="Fill-4" fill="#FFFFFF"></path>
                <path d="M39.6055652,40.0382609 L46.7046957,40.0382609 L46.7046957,47.133913 L39.6055652,47.133913 L39.6055652,40.0382609 Z" id="Fill-5" fill="#FFFFFF"></path>
                <path d="M18.6038261,5.73008696 C18.6038261,6.38469565 19.1457391,6.91478261 19.8149565,6.91478261 C19.824,6.91478261 19.8323478,6.91756522 19.8413913,6.91686957 C19.8504348,6.91756522 19.8587826,6.91478261 19.8678261,6.91478261 C20.5370435,6.91478261 21.0789565,6.38469565 21.0789565,5.73008696 C21.0789565,5.17286957 20.6852174,4.70747826 20.128,4.58017391 L20.128,3.79965217 L20.8695652,3.79965217 L20.8695652,3.27026087 L20.128,3.27026087 L20.128,2.57321739 L19.5645217,2.57321739 L19.5645217,3.27026087 L18.8132174,3.27026087 L18.8132174,3.79965217 L19.5645217,3.79965217 L19.5645217,4.58017391 C18.9968696,4.70747826 18.6038261,5.17286957 18.6038261,5.73008696" id="Fill-6" fill="#788788"></path>
                <path d="M19.8358261,14.9655652 C22.5961739,14.9655652 24.6810435,15.1046957 26.7401739,15.3975652 L28.0918261,9.95826087 C28.0125217,9.93391304 27.9234783,9.91930435 27.8253913,9.91930435 C27.4031304,9.91930435 26.9913043,10.1662609 26.9057391,10.4716522 C26.8083478,10.8201739 26.9273043,11.1457391 27.074087,11.3954783 C26.8966957,11.1965217 26.6233043,11.0107826 26.3290435,11.0107826 C26.0410435,11.0107826 25.7822609,11.3732174 25.6570435,11.8198261 C25.5325217,12.2664348 25.6834783,12.6288696 25.9721739,12.6288696 C26.2518261,12.6288696 26.5189565,12.4528696 26.8055652,12.2601739 C26.7554783,12.4306087 26.4549565,13.6806957 25.8156522,13.6806957 L24.8,13.5575652 C24.1488696,13.5575652 23.888,12.2566957 23.8462609,12.1113043 C23.8462609,12.1113043 24.3471304,12.5064348 24.6434783,12.5064348 C24.9314783,12.5064348 25.2236522,12.1926957 25.2953043,11.7453913 C25.3676522,11.2994783 25.1916522,10.8535652 24.9036522,10.8535652 C24.6135652,10.8535652 24.2573913,11.0518261 23.9895652,11.2535652 C24.2427826,11.005913 24.5307826,10.6107826 24.5878261,10.258087 C24.6365217,9.9533913 24.333913,9.70643478 23.9116522,9.70643478 C23.4893913,9.70643478 23.1074783,9.9533913 23.0587826,10.258087 C23.0017391,10.6073043 23.1686957,11.0066087 23.3453913,11.2563478 C23.1443478,11.0566957 22.8486957,10.6977391 22.5537391,10.6977391 C22.2657391,10.6977391 21.9742609,11.1603478 21.9026087,11.6069565 C21.8302609,12.0542609 22.0584348,12.3373913 22.3471304,12.3373913 C22.6330435,12.3373913 22.9321739,12.3053913 23.197913,12.1064348 L23.1798261,12.189913 C23.0893913,12.4653913 22.7485217,13.4045217 22.1725217,13.4045217 L21.1568696,13.3669565 C20.5453913,13.3669565 20.2427826,12.173913 20.173913,11.9492174 L20.1711304,11.8970435 C20.4048696,12.0973913 20.7325217,12.2852174 21.0295652,12.2852174 C21.3175652,12.2852174 21.5513043,11.9234783 21.5513043,11.4761739 C21.5513043,11.0295652 21.3175652,10.6629565 21.0295652,10.6629565 C20.7394783,10.6629565 20.4125217,10.8563478 20.178087,11.0573913 C20.3909565,10.8097391 20.6156522,10.4153043 20.6156522,10.0626087 C20.6156522,9.75791304 20.2733913,9.51026087 19.8511304,9.51026087 C19.8490435,9.51026087 19.8469565,9.51095652 19.8448696,9.51095652 C19.8427826,9.51095652 19.8406957,9.51026087 19.8386087,9.51026087 C19.4163478,9.51026087 19.074087,9.75791304 19.074087,10.0626087 C19.074087,10.4153043 19.2987826,10.8097391 19.5116522,11.0573913 C19.2765217,10.8563478 18.9509565,10.6629565 18.6601739,10.6629565 C18.3721739,10.6629565 18.1384348,11.0295652 18.1384348,11.4761739 C18.1384348,11.9234783 18.3721739,12.2852174 18.6601739,12.2852174 C18.9572174,12.2852174 19.2841739,12.0973913 19.5186087,11.8970435 L19.5151304,11.9492174 C19.4469565,12.173913 19.1443478,13.3669565 18.5328696,13.3669565 L17.5172174,13.4045217 C16.9412174,13.4045217 16.5634783,12.4375652 16.4737391,12.162087 L16.4549565,12.0786087 C16.7213913,12.2775652 17.0010435,12.3144348 17.2876522,12.3144348 C17.5756522,12.3144348 17.8226087,12.0257391 17.7509565,11.5791304 C17.6793043,11.1325217 17.3871304,10.6984348 17.0991304,10.6984348 C16.8041739,10.6984348 16.5092174,11.0295652 16.3074783,11.2278261 C16.4841739,10.9787826 16.6511304,10.5794783 16.5947826,10.2302609 C16.546087,9.92556522 16.1634783,9.6786087 15.7412174,9.6786087 C15.3196522,9.6786087 15.0163478,9.92556522 15.0657391,10.2302609 C15.122087,10.5829565 15.410087,10.9773913 15.6633043,11.2257391 C15.3954783,11.024 15.0393043,10.8445217 14.7492174,10.8445217 C14.4612174,10.8445217 14.285913,11.2709565 14.3575652,11.7175652 C14.4292174,12.1641739 14.7213913,12.5175652 15.0093913,12.5175652 C15.3057391,12.5175652 15.8066087,12.0827826 15.8066087,12.0827826 C15.7655652,12.2281739 15.5401739,13.5575652 14.8897391,13.5575652 L13.874087,13.6806957 C13.234087,13.6806957 12.9335652,12.4306087 12.8841739,12.2601739 C13.1707826,12.4528696 13.442087,12.6288696 13.7224348,12.6288696 C14.0104348,12.6288696 14.162087,12.2664348 14.0368696,11.8198261 C13.9123478,11.3732174 13.6486957,11.0107826 13.3606957,11.0107826 C13.0664348,11.0107826 12.7930435,11.1965217 12.6149565,11.3954783 C12.7624348,11.1457391 12.8813913,10.8201739 12.784,10.4716522 C12.6984348,10.1662609 12.2873043,9.91930435 11.8643478,9.91930435 C11.7662609,9.91930435 11.6772174,9.93391304 11.5972174,9.95826087 L12.9544348,15.4163478 C15.0594783,15.1109565 17.0170435,14.9655652 19.8358261,14.9655652 L19.8358261,14.9655652 Z M27.282087,11.6264348 L27.2813913,11.6271304 C27.2806957,11.6257391 27.2793043,11.6243478 27.2786087,11.6222609 C27.2793043,11.6236522 27.2806957,11.6257391 27.282087,11.6264348 L27.282087,11.6264348 Z M12.5593043,11.6271304 L12.5586087,11.6264348 C12.56,11.6257391 12.5606957,11.6236522 12.562087,11.6222609 C12.5606957,11.6243478 12.56,11.6257391 12.5593043,11.6271304 L12.5593043,11.6271304 Z" id="Fill-7" fill="#788788"></path>
                <path d="M26.5502609,7.57704348 C26.1217391,7.56521739 25.3363478,7.52208696 24.6434783,7.67095652 C24.2866087,6.99895652 23.0031304,6.96 22.6031304,6.9746087 C22.1015652,6.992 20.5843478,7.14156522 19.8309565,7.4066087 C19.0768696,7.14156522 17.5735652,6.99547826 17.0713043,6.97808696 C16.6713043,6.96347826 15.3892174,7.01634783 15.0309565,7.69321739 C14.3373913,7.54226087 13.5485217,7.58608696 13.1186087,7.59791304 C12.6316522,7.61113043 10.9843478,7.81356522 11.3502609,9.16730435 L11.4886957,9.60486957 C11.714087,9.51791304 11.9686957,9.50817391 12.3067826,9.64591304 L12.1933913,9.30295652 C12.1933913,9.30295652 12.0041739,8.72695652 12.589913,8.5613913 C13.1478261,8.40486957 13.9283478,8.42991304 15.0163478,8.56278261 L15.2083478,9.43721739 C15.4462609,9.36347826 15.8177391,9.27443478 16.1565217,9.43930435 L15.9464348,8.48278261 C15.9464348,8.48278261 15.8490435,7.96521739 16.4626087,7.84695652 C16.9968696,7.744 17.8893913,7.89286957 18.9808696,8.08695652 C18.9808696,8.08695652 19.2396522,8.11965217 19.2556522,8.31513043 C19.2737391,8.53773913 19.2973913,9.2946087 19.2973913,9.2946087 C19.389913,9.22434783 19.6716522,9.15686957 19.8358261,9.15756522 C20,9.15686957 20.2511304,9.21947826 20.3436522,9.28973913 L20.4090435,8.31513043 C20.4333913,8.14121739 20.672,8.11965217 20.672,8.11965217 C21.8066087,7.92417391 22.6650435,7.73773913 23.2118261,7.84347826 C23.8253913,7.96173913 23.728,8.45634783 23.728,8.45634783 L23.5095652,9.43930435 C23.8476522,9.27443478 24.2212174,9.36486957 24.4598261,9.43930435 L24.6566957,8.54121739 C25.741913,8.40834783 26.5217391,8.38330435 27.0782609,8.54052174 C27.664,8.7053913 27.4754783,9.28208696 27.4754783,9.28208696 L27.3808696,9.62504348 C27.7196522,9.48730435 27.9742609,9.49634783 28.1996522,9.584 L28.3186087,9.14643478 C28.6845217,7.79269565 27.0372174,7.59026087 26.5502609,7.57704348" id="Fill-8" fill="#788788"></path>
                <path d="M7.88243478,29.5332174 C6.88834783,29.8337391 6.02643478,30.2448696 6.02365217,30.8424348 C6.02713043,31.4253913 6.25391304,31.9137391 6.73808696,32.3798261 C7.17286957,32.797913 7.81147826,33.197913 8.80765217,33.6765217 C10.2358261,34.3645217 11.1575652,34.7088696 11.68,34.8772174 C12.2274783,35.053913 12.5113043,35.0935652 12.5697391,35.0852174 C13.0504348,35.0984348 14.8153043,34.3346087 14.9252174,34.2733913 L14.944,34.2622609 L14.9335652,34.2434783 C14.9036522,34.1871304 13.7516522,33.3558261 13.5088696,33.3356522 L13.5067826,33.3356522 L13.5053913,33.3356522 C13.3426087,33.3502609 13.2667826,33.4142609 13.1415652,33.52 C13.0949565,33.5596522 13.0365217,33.6083478 12.9634783,33.6633043 L12.9126957,33.52 C12.8744348,33.4135652 12.8702609,33.3558261 12.8653913,33.3335652 C12.8674783,33.2987826 12.8598261,33.2445217 12.8326957,33.2236522 L12.6970435,33.2083478 L12.6914783,33.2083478 L12.6866087,33.2104348 C12.624,33.2445217 12.5725217,33.2772174 12.5266087,33.3064348 C12.4006957,33.3878261 12.301913,33.4518261 12.0563478,33.4636522 C11.6389565,33.4573913 10.7937391,33.1631304 9.14017391,31.7975652 C9.104,31.7676522 9.08104348,31.7488696 9.06573913,31.7363478 C9.1506087,31.6612174 9.21252174,31.6069565 9.33078261,31.5895652 L13.0803478,31.5895652 C13.2382609,31.602087 13.4093913,31.4838261 13.5464348,31.3885217 C13.6194783,31.3377391 13.6883478,31.2897391 13.7196522,31.2911304 C13.7196522,31.2911304 14.32,31.7648696 15.314087,31.7648696 C16.9370435,31.8031304 20.221913,31.1457391 20.221913,31.1457391 C20.6149565,31.1443478 20.7506087,31.4177391 20.8793043,31.6104348 C21.072,31.8998261 21.1881739,32.3631304 21.9012174,32.6761739 C22.5384348,32.9565217 22.8118261,33.0782609 23.4295652,33.1561739 C23.7189565,33.1916522 24.016,33.2153043 24.08,33.2083478 L24.08,33.2097391 C24.2678261,33.2173913 24.3986087,33.2153043 24.5495652,33.2125217 L24.7631304,33.2097391 C25.3196522,33.2278261 25.9554783,33.0525217 26.4667826,32.9113043 C26.784,32.8236522 27.0587826,32.7478261 27.2333913,32.7408696 C27.2528696,32.7485217 27.3829565,32.8194783 27.5478261,32.9106087 C28.4570435,33.4086957 30.8730435,34.733913 31.7551304,34.7450435 C31.9944348,34.7325217 33.7502609,34.1307826 33.9895652,33.8413913 L34.0041739,33.8246957 L33.9867826,33.810087 C33.9763478,33.8003478 32.5947826,32.8493913 32.3513043,32.8667826 L32.354087,32.8667826 C32.2302609,32.8577391 32.1843478,32.9147826 32.1147826,33.0017391 C32.0542609,33.0775652 31.933913,33.2069565 31.7913043,33.2932174 C31.7913043,33.2932174 31.4949565,33.36 31.5353043,33.2932174 C31.5707826,33.2354783 31.5478261,33.2709565 31.554087,33.2577391 C31.597913,33.1784348 31.6633043,33.0587826 31.6925217,32.9370435 L31.696,32.9224348 L31.6834783,32.914087 C31.597913,32.8514783 31.4518261,32.8236522 31.2486957,32.7853913 C30.850087,32.7088696 30.2469565,32.5933913 29.5513043,32.1036522 C28.8806957,31.6646957 28.6998261,31.2674783 28.5683478,30.978087 C28.4417391,30.6991304 28.3582609,30.5147826 27.917913,30.5217391 C27.6723478,30.5147826 27.5429565,30.5857391 27.4184348,30.653913 C27.3008696,30.7193043 27.1895652,30.7805217 26.9808696,30.7777391 C26.7986087,30.7805217 26.6212174,30.7067826 26.4806957,30.5690435 C26.3568696,30.4486957 26.2789565,30.2914783 26.2775652,30.1606957 C26.2782609,29.9763478 26.3311304,29.76 26.4090435,29.5373913 L7.88243478,29.5332174 L7.88243478,29.5332174 Z M30.3346087,29.5332174 C31.1902609,29.8914783 32.0737391,29.922087 32.0737391,29.922087 C32.0841739,29.9213913 32.128,29.7627826 32.1857391,29.5332174 L30.3346087,29.5332174 L30.3346087,29.5332174 Z" id="Fill-9" fill="#788788"></path>
                <path d="M26.4090435,29.5332174 C26.5349565,29.1798261 26.7248696,28.8062609 26.8695652,28.5217391 C26.944,28.3756522 27.008,28.2497391 27.0434783,28.1648696 C27.4810435,27.1874783 27.6069565,26.5238261 27.682087,26.128 C27.7433043,25.8038261 27.7711304,25.6556522 27.906087,25.6507826 C28.1815652,25.6563478 28.2142609,25.8274783 28.3005217,26.285913 C28.386087,26.7373913 28.4598261,27.0073043 28.8793043,28.1704348 C29.1290435,28.8626087 29.7238261,29.282087 30.3346087,29.536 L32.1857391,29.5332174 C32.3346087,28.9398261 32.5766957,27.8733913 32.5753043,27.8455652 L32.573913,27.824 L32.5732174,27.824 C32.5474783,27.714087 32.2775652,27.6737391 31.8838261,27.613913 C31.2333913,27.5151304 30.2893913,27.3586087 30.0389565,26.7401739 C29.506087,25.4281739 29.010087,24.9293913 28.0333913,24.9238261 C27.709913,24.928 27.5464348,25.101913 27.4678261,25.186087 C27.4553043,25.2 27.4413913,25.213913 27.4330435,25.2201739 C24.9634783,24.416 24.1892174,24.5022609 21.6793043,25.2570435 C20.3401739,25.6598261 17.8678261,25.4066087 17.6069565,25.378087 C17.6883478,24.7693913 17.7453913,24.1961739 17.7836522,23.6577391 L17.7947826,23.4191304 C18.2191304,23.3655652 18.4326957,23.3996522 18.5753043,23.7843478 C18.9593043,24.8208696 20.6177391,22.7026087 20.9857391,23.7321739 C21.3426087,24.7304348 22.9864348,22.5683478 23.3523478,23.5993043 C23.5165217,24.0605217 23.9652174,24.1189565 24.5989565,23.9846957 L24.973913,22.5829565 C24.1801739,22.7610435 23.4928696,22.797913 23.3092174,22.3130435 C22.9530435,21.3683478 21.3189565,23.36 20.9906087,22.4438261 C20.6469565,21.4838261 18.9078261,23.584 18.5321739,22.4973913 C18.4076522,22.1391304 18.2246957,22.0946087 17.8441739,22.1238261 C17.8448696,22.0528696 17.8205217,21.0532174 17.8205217,21.0532174 C18.3513043,20.9349565 18.6504348,20.8528696 18.8507826,21.373913 C19.2431304,22.3951304 20.9175652,20.2212174 21.3196522,21.3224348 C21.6946087,22.349913 23.378087,20.0925217 23.7878261,21.1888696 C23.9916522,21.7363478 24.5433043,21.7015652 25.2264348,21.5081739 L25.6027826,20.1008696 C24.7881739,20.3241739 23.9387826,20.4549565 23.7446957,19.9026087 C23.4170435,18.9718261 21.6521739,20.9502609 21.3245217,20.034087 C20.9822609,19.0747826 19.1596522,21.1227826 18.8076522,20.0876522 C18.6212174,19.5387826 18.2692174,19.6473043 17.7133913,19.7815652 C17.7133913,19.7815652 17.6069565,18.9043478 17.5944348,18.8326957 C18.2768696,18.5968696 18.9231304,18.4006957 19.1262609,19.0086957 C19.4622609,20.0153043 21.2653913,17.8768696 21.6605217,18.9572174 C22.0354783,19.9846957 23.906087,17.7864348 24.2782609,18.8243478 C24.5022609,19.4483478 25.1666087,19.3050435 25.8469565,19.0594783 L26.2233043,17.6507826 C25.4511304,17.9067826 24.4730435,18.2246957 24.2358261,17.5373913 C23.9172174,16.6184348 22.0006957,18.5815652 21.6653913,17.6681739 C21.330087,16.7561739 19.4747826,18.8688696 19.0831304,17.7224348 C18.8507826,17.0413913 18.0166957,17.3606957 17.3071304,17.6361739 C17.248,17.4608696 17.2034783,17.2987826 17.1993043,17.2883478 C17.325913,17.1325217 17.7843478,16.576 17.7843478,16.576 L17.0824348,16.6434783 C16.882087,16.6553043 16.5523478,16.7109565 15.874087,16.7902609 C13.5137391,17.0664348 9.11930435,17.5805217 9.05043478,18.3478261 C8.98573913,19.0747826 9.49008696,19.1805217 9.49495652,19.181913 L9.49773913,19.1826087 L9.50121739,19.1826087 C9.61321739,19.1721739 9.83582609,19.0713043 10.0326957,18.9829565 C10.1864348,18.9133913 10.3457391,18.8417391 10.3944348,18.8410435 C10.5446957,18.8424348 10.6685217,18.9092174 10.6706087,18.989913 C10.6692174,19.2313043 10.365913,19.3342609 10.0723478,19.4337391 C9.77878261,19.533913 9.47547826,19.6368696 9.47686957,19.8845217 C9.47547826,20.0076522 9.5213913,20.125913 9.59721739,20.1933913 C9.64591304,20.2365217 9.70086957,20.2553043 9.75791304,20.2476522 L9.75443478,20.2476522 C9.95826087,20.2566957 10.16,20.146087 10.3742609,20.029913 C10.608,19.901913 10.8493913,19.7704348 11.1165217,19.7794783 C12.1154783,20.0208696 13.1457391,20.3332174 13.1436522,20.4382609 C13.1450435,20.5405217 13.1005217,20.5968696 13.0017391,20.72 C12.7812174,20.9947826 12.322087,21.565913 11.5673043,23.586087 C10.5537391,26.2991304 10.832,28.5370435 10.8431304,28.6852174 C10.797913,28.7673043 10.1815652,28.9753043 9.61113043,29.101913 C9.08591304,29.218087 8.46191304,29.3565217 7.88243478,29.5325217 L26.4090435,29.5332174 L26.4090435,29.5332174 Z M14.6490435,17.810087 C14.3053913,17.8775652 14.0111304,17.7057391 14.0111304,17.7057391 C14.0111304,17.7057391 14.1989565,17.4504348 14.5426087,17.3836522 C14.8855652,17.3168696 15.1867826,17.4789565 15.1867826,17.4789565 C15.1638261,17.6034783 14.992,17.7433043 14.6490435,17.810087 L14.6490435,17.810087 Z" id="Fill-10" fill="#788788"></path>
            </g>
        </g>
    </g>
</svg>