<svg id="Layer_1" data-name="Layer 1" xmlns="http://www.w3.org/2000/svg" viewBox="0 0 182 51"><defs><style>.cls-1{fill:#f1f3f3;}</style></defs><title>Artboard 1</title><g id="Page-1"><g id="Met_RGB_Horisontal" data-name="Met RGB Horisontal"><path id="Fill-1" class="cls-1" d="M15.64,3.12a13,13,0,1,0,13,13,13,13,0,0,0-13-13Zm0,28.32A15.31,15.31,0,1,1,31,16.13,15.33,15.33,0,0,1,15.64,31.45Z"/><polyline id="Fill-2" class="cls-1" points="24.78 50.89 18.79 44.9 12.8 50.89 6.8 44.9 1.56 50.13 0.06 48.63 6.8 41.89 12.8 47.87 18.79 41.89 24.78 47.87 30.01 42.64 31.52 44.15 24.78 50.89"/><polyline id="Fill-3" class="cls-1" points="58.7 8.2 60.86 8.2 60.86 22.34 58.72 22.34 58.72 12.53 55.81 18.55 54.03 18.55 51.12 12.53 51.12 22.34 48.98 22.34 48.98 8.2 51.15 8.2 54.92 16.02 58.7 8.2"/><path id="Fill-4" class="cls-1" d="M66.21,15.94v0h4.44v0a2.22,2.22,0,1,0-4.44,0ZM70.55,19h2.16a4,4,0,0,1-4.28,3.52,4,4,0,0,1-4.34-4.32V16a4.34,4.34,0,0,1,8.68,0v1.88H66.21v.34a2.07,2.07,0,0,0,2.22,2.32A2,2,0,0,0,70.55,19Z"/><path id="Fill-5" class="cls-1" d="M78.69,19.31c0,.77.14,1,1,1h1.6v2h-2.2a2.17,2.17,0,0,1-2.48-2.48V13.92H75.09v-2h1.47V9.56h2.12v2.36h2.56v2H78.69v5.39"/><path id="Fill-6" class="cls-1" d="M86.05,15.94v0h4.44v0a2.22,2.22,0,1,0-4.44,0ZM90.39,19h2.16a4,4,0,0,1-4.28,3.52,4,4,0,0,1-4.34-4.32V16a4.34,4.34,0,0,1,8.69,0v1.88H86.05v.34a2.07,2.07,0,0,0,2.22,2.32A2,2,0,0,0,90.39,19Z"/><path id="Fill-7" class="cls-1" d="M102.11,16a2.22,2.22,0,1,0-4.44,0v2.18a2.22,2.22,0,1,0,4.44,0V16Zm-6.57,0a4.34,4.34,0,0,1,8.69,0v2.26a4.34,4.34,0,0,1-8.69,0V16Z"/><path id="Fill-8" class="cls-1" d="M111.55,13.8a2.05,2.05,0,0,0-2.22,2.3v6.24h-2.12V11.92h2.12v1a2.86,2.86,0,0,1,2.42-1.19h.81V13.8h-1"/><path id="Fill-9" class="cls-1" d="M121.31,16a2.22,2.22,0,1,0-4.44,0v2.18a2.22,2.22,0,1,0,4.44,0V16Zm-6.56,0a4.34,4.34,0,0,1,8.69,0v2.26a4.34,4.34,0,0,1-8.69,0V16Z"/><path id="Fill-10" class="cls-1" d="M128.62,19.31c0,.77.14,1,1,1h.32v2H129a2.17,2.17,0,0,1-2.49-2.48V8.2h2.12V19.31"/><path id="Fill-11" class="cls-1" d="M139.1,16a2.22,2.22,0,1,0-4.44,0v2.18a2.22,2.22,0,1,0,4.44,0V16Zm-6.57,0a4.34,4.34,0,0,1,8.69,0v2.26a4.34,4.34,0,0,1-8.69,0V16Z"/><path id="Fill-12" class="cls-1" d="M156.14,22.34h2.12V11.92h-2.12Zm0-12h2.12V8.2h-2.12Z"/><path id="Fill-13" class="cls-1" d="M161.12,19h2.18c.16,1,1.15,1.49,2.28,1.49.93,0,1.72-.24,1.72-1.09s-.63-.93-1.32-1.09l-2-.5a3,3,0,0,1-2.65-3.11c0-2.06,1.66-3.07,3.78-3.07s3.8,1,4,3.33h-2.22c-.16-.91-.95-1.29-1.92-1.29-.64,0-1.49.24-1.49,1.07,0,.63.61.83,1.17,1l1.92.49c1.9.49,2.85,1.29,2.85,3.27s-1.62,3.07-3.88,3.07-4.32-1.15-4.44-3.54"/><polyline id="Fill-14" class="cls-1" points="174.31 16.16 178.21 11.92 180.78 11.92 177.02 16 181.34 22.34 178.88 22.34 175.6 17.53 174.31 18.95 174.31 22.34 172.19 22.34 172.19 8.2 174.31 8.2 174.31 16.16"/><path id="Fill-15" class="cls-1" d="M48.88,43.18H51V32.75H48.88Zm0-12H51V29H48.88Z"/><path id="Fill-16" class="cls-1" d="M56.63,43.18H54.51V32.75h2.12v.91a2.86,2.86,0,0,1,2.42-1.19A4,4,0,0,1,63.2,36.8v6.38H61.08V36.83a2.22,2.22,0,1,0-4.44,0v6.34"/><path id="Fill-17" class="cls-1" d="M79.86,40.15c0,.77.14,1,1,1h1.6v2h-2.2a2.17,2.17,0,0,1-2.48-2.49V34.75H76.26v-2h1.47V30.39h2.12v2.36h2.57v2H79.86v5.39Zm-14-.3h2.18c.16,1,1.15,1.5,2.28,1.5.93,0,1.72-.24,1.72-1.09s-.63-.93-1.31-1.09l-2-.5a3,3,0,0,1-2.65-3.11c0-2.06,1.66-3.07,3.78-3.07s3.8,1,4,3.33H71.68c-.16-.91-.95-1.29-1.92-1.29-.65,0-1.5.24-1.5,1.07,0,.62.61.83,1.17,1l1.92.48c1.9.49,2.85,1.29,2.85,3.27s-1.62,3.07-3.88,3.07S66,42.23,65.88,39.84Z"/><path id="Fill-18" class="cls-1" d="M85.37,43.18h2.12V32.75H85.37Zm0-12h2.12V29H85.37Z"/><path id="Fill-19" class="cls-1" d="M94,40.15c0,.77.14,1,1,1h1.6v2h-2.2a2.17,2.17,0,0,1-2.49-2.49V34.75H90.35v-2h1.48V30.39H94v2.36h2.56v2H94v5.39"/><path id="Fill-20" class="cls-1" d="M101.52,39a2.17,2.17,0,1,0,4.32,0V32.75H108V43.18h-2.12v-1a2.86,2.86,0,0,1-2.42,1.19,4,4,0,0,1-4-4.32v-6.3h2.12V39"/><path id="Fill-21" class="cls-1" d="M122.24,40.15c0,.77.14,1,1,1h1.6v2h-2.2a2.17,2.17,0,0,1-2.48-2.49V34.75h-1.48v-2h1.48V30.39h2.12v2.36h2.57v2h-2.57v5.39Zm-8.16,0c0,.77.14,1,1,1h1.6v2h-2.2A2.17,2.17,0,0,1,112,40.69V34.75h-1.48v-2H112V30.39h2.12v2.36h2.57v2h-2.57v5.39Z"/><path id="Fill-22" class="cls-1" d="M146.1,17.57a2.22,2.22,0,1,0,4.44,0V16a2.22,2.22,0,1,0-4.44,0v1.58Zm4.44,4.32V20.74a2.86,2.86,0,0,1-2.42,1.19A4,4,0,0,1,144,17.61V16a4,4,0,0,1,4.14-4.32,2.86,2.86,0,0,1,2.42,1.19v-.91h2.12v10a4,4,0,0,1-4.34,4.32,4,4,0,0,1-4.3-3.71h2.14a2,2,0,0,0,2.16,1.67,2.07,2.07,0,0,0,2.22-2.32Z"/></g></g></svg>