<?xml version="1.0" encoding="utf-8"?>
<!-- Generator: Adobe Illustrator 21.1.0, SVG Export Plug-In . SVG Version: 6.00 Build 0)  -->
<svg version="1.1" id="Layer_1" xmlns="http://www.w3.org/2000/svg" xmlns:xlink="http://www.w3.org/1999/xlink" x="0px" y="0px"
	 width="47px" height="48px" viewBox="0 0 47 48" enable-background="new 0 0 47 48" xml:space="preserve">
<title>Artboard 1</title>
<g>
	<path id="Fill-1" fill="#F1F3F3" d="M9,42.1h1.6l1.6,3.3l0,0v-3.3h1.2V47h-1.7l-1.7-3.3l0,0V47H9V42.1"/>
	<path id="Fill-2" fill="#F1F3F3" d="M17.7,42.1h1.4l1.1,3.8l0,0l1.1-3.8h1.3L21,47h-1.6L17.7,42.1"/>
	<path id="Fill-3" fill="#F1F3F3" d="M27.3,42.1h3.4v0.9h-2.1v1h2V45h-2v1.1h2.2V47h-3.5V42.1"/>
</g>
<defs>
	<filter id="Adobe_OpacityMaskFilter" filterUnits="userSpaceOnUse" x="0.1" y="0.6" width="39.4" height="39.4">
		<feFlood  style="flood-color:white;flood-opacity:1" result="back"/>
		<feBlend  in="SourceGraphic" in2="back" mode="normal"/>
	</filter>
</defs>
<mask maskUnits="userSpaceOnUse" x="0.1" y="0.6" width="39.4" height="39.4" id="Fill-4_1_">
	<g filter="url(#Adobe_OpacityMaskFilter)">
		<g>
			<path id="Fill-6" fill="#000033" d="M18.6,5.7c0,0.7,0.6,1.2,1.2,1.2h0c0.7,0,1.2-0.5,1.2-1.2c0-0.5-0.4-1-0.9-1.1V3.8h0.7V3.3
				h-0.7V2.6h-0.6v0.7h-0.8v0.5h0.8v0.8C19,4.7,18.6,5.2,18.6,5.7"/>
			<path id="Fill-7" fill="#000033" d="M19.8,15c2.3,0,4.6,0.1,6.9,0.4l1.4-5.4c-0.1,0-0.2,0-0.3,0c-0.4,0-0.7,0.2-0.9,0.6
				c-0.1,0.3,0,0.6,0.2,0.9c-0.2-0.2-0.5-0.4-0.8-0.4c-0.3,0-0.5,0.4-0.7,0.8s0,0.8,0.3,0.8c0.3,0,0.6-0.2,0.8-0.4
				c0,0.2-0.4,1.4-1,1.4l-1-0.1c-0.6,0-0.9-1.3-1-1.4c0.2,0.2,0.5,0.3,0.8,0.4c0.3,0,0.6-0.3,0.6-0.8s-0.1-0.9-0.4-0.9
				c-0.3,0-0.7,0.2-0.9,0.4c0.3-0.3,0.5-0.6,0.6-1c0-0.3-0.2-0.6-0.7-0.6c-0.4,0-0.7,0.2-0.9,0.6c0,0.4,0.1,0.7,0.3,1
				c-0.2-0.2-0.5-0.6-0.8-0.6s-0.6,0.5-0.6,0.9s0.2,0.7,0.4,0.7c0.3,0,0.6-0.1,0.9-0.2v0.1c-0.1,0.3-0.4,1.2-1,1.2h-1
				c-0.6,0-0.9-1.2-1-1.4v-0.2c0.2,0.2,0.5,0.4,0.9,0.4c0.3,0,0.5-0.4,0.5-0.8s-0.2-0.8-0.5-0.8c-0.3,0-0.6,0.2-0.9,0.4
				c0.3-0.3,0.4-0.6,0.4-1c0-0.3-0.3-0.6-0.8-0.6l0,0c-0.4,0-0.8,0.2-0.8,0.6c0,0.4,0.2,0.7,0.4,1c-0.2-0.2-0.5-0.4-0.9-0.4
				c-0.3,0-0.5,0.4-0.5,0.8s0.2,0.8,0.5,0.8c0.3,0,0.6-0.2,0.9-0.4v0.1c-0.1,0.2-0.4,1.4-1,1.4h-1c-0.6,0-1-1-1-1.2v-0.1
				c0.2,0.2,0.5,0.3,0.8,0.2c0.3,0,0.5-0.3,0.5-0.7s-0.4-0.9-0.6-0.9s-0.6,0.3-0.8,0.5c0.2-0.3,0.3-0.6,0.3-1
				c-0.1-0.4-0.5-0.6-0.9-0.6c-0.4,0-0.7,0.2-0.7,0.6c0.1,0.4,0.3,0.7,0.6,1c-0.3-0.2-0.6-0.3-0.9-0.4c-0.3,0-0.5,0.4-0.4,0.9
				s0.4,0.8,0.6,0.8s0.8-0.4,0.8-0.4s-0.3,1.5-0.9,1.5l-1,0.1c-0.6,0-0.9-1.2-1-1.4c0.2,0.2,0.5,0.3,0.8,0.4c0.3,0,0.4-0.4,0.3-0.8
				S13.7,11,13.4,11c-0.3,0-0.6,0.2-0.8,0.4c0.2-0.3,0.2-0.6,0.2-0.9c-0.2-0.3-0.5-0.6-0.9-0.6c-0.1,0-0.2,0-0.3,0l1.3,5.5
				C15.3,15.1,17.6,15,19.8,15z M27.3,11.7L27.3,11.7z M12.6,11.7L12.6,11.7z"/>
			<path id="Fill-8" fill="#000033" d="M26.5,7.6c-0.6,0-1.3,0-1.9,0.1C24.3,7,23,7,22.6,7c-0.9,0-1.9,0.2-2.8,0.4
				C18.9,7.2,18,7,17.1,7c-0.4,0-1.7,0-2,0.7c-0.6-0.1-1.3-0.1-1.9-0.1c-0.5,0-2.1,0.2-1.8,1.6l0.1,0.4c0.3-0.1,0.6-0.1,0.8,0
				l-0.1-0.3c-0.1-0.3,0.1-0.6,0.4-0.7c0,0,0,0,0,0c0.8-0.1,1.6-0.1,2.4,0l0.2,0.9c0.3-0.1,0.6-0.1,0.9,0l-0.2-1
				c0-0.3,0.2-0.6,0.5-0.6c0,0,0,0,0.1,0c0.8,0,1.7,0.1,2.5,0.3c0,0,0.3,0,0.3,0.2s0,1,0,1c0.2-0.1,0.4-0.1,0.5-0.1
				c0.2,0,0.4,0,0.5,0.1l0.1-1c0-0.2,0.3-0.2,0.3-0.2c0.8-0.2,1.7-0.3,2.5-0.3c0.6,0.1,0.5,0.6,0.5,0.6l-0.2,1c0.3-0.1,0.7-0.1,1,0
				l0.2-0.9c0.8-0.1,1.6-0.1,2.4,0c0.3,0.1,0.5,0.4,0.4,0.7c0,0,0,0,0,0l-0.1,0.3c0.3-0.1,0.6-0.1,0.8,0l0.1-0.4
				C28.7,7.8,27.1,7.6,26.5,7.6"/>
			<g>
				<path id="Fill-9_1_" fill="#000033" d="M7.8,29.6c-1,0.3-1.9,0.7-1.9,1.3c0,0.6,0.3,1.2,0.7,1.5c0.6,0.5,1.3,1,2.1,1.3
					c0.9,0.5,1.9,0.9,2.9,1.2c0.3,0.1,0.6,0.2,0.9,0.2c0.8-0.2,1.6-0.4,2.4-0.8l0,0l0,0c-0.4-0.4-0.9-0.7-1.4-0.9l0,0
					c-0.1,0-0.3,0.1-0.4,0.2l-0.2,0.1l-0.1-0.1c0-0.1,0-0.1,0-0.2c0,0,0-0.1,0-0.1h-0.1l0,0l-0.2,0.1c-0.1,0.1-0.3,0.2-0.5,0.2
					c-0.4,0-1.3-0.3-2.9-1.7l-0.1-0.1c0.1-0.1,0.2-0.1,0.3-0.1h3.8c0.2,0,0.3-0.1,0.5-0.2c0,0,0.1-0.1,0.2-0.1
					c0.5,0.3,1,0.5,1.6,0.5c1.7-0.1,3.3-0.3,4.9-0.6c0.4,0,0.5,0.3,0.7,0.5c0.2,0.5,0.5,0.9,1,1.1c0.5,0.2,1,0.4,1.5,0.5
					c0.2,0,0.4,0,0.6,0h0.7c0.6,0,1.2-0.1,1.7-0.3c0.3-0.1,0.5-0.1,0.8-0.2l0.3,0.2c0.9,0.5,3.3,1.8,4.2,1.8
					c0.8-0.2,1.5-0.5,2.2-0.9l0,0l0,0c-0.5-0.4-1.1-0.7-1.6-0.9l0,0c-0.1,0-0.2,0-0.2,0.1c-0.1,0.1-0.2,0.2-0.3,0.3
					c0,0-0.3,0.1-0.3,0l0,0c0.1-0.1,0.1-0.2,0.1-0.3l0,0c-0.1-0.1-0.3-0.1-0.4-0.1c-0.6-0.1-1.2-0.3-1.7-0.7c-0.4-0.3-0.8-0.7-1-1.1
					c-0.1-0.3-0.2-0.5-0.6-0.5c-0.2,0-0.4,0-0.5,0.1c-0.1,0.1-0.3,0.1-0.4,0.1c-0.2,0-0.4-0.1-0.5-0.2c-0.1-0.1-0.2-0.3-0.2-0.4
					c0-0.2,0-0.6,0.1-0.8L7.8,29.6z M30.3,29.6c0.6,0.2,1.1,0.4,1.7,0.4c0-0.1,0.1-0.3,0.1-0.4 M30.3,29.6 M32.1,29.6"/>
				<path id="Fill-10_1_" fill="#000033" d="M32.2,29.6c0.2-0.6,0.4-1.7,0.4-1.7l0,0l0,0c0-0.1-0.3-0.1-0.7-0.2
					c-0.6-0.1-1.6-0.3-1.8-0.9c-0.5-1.3-1-1.8-2-1.8c-0.2,0-0.4,0.1-0.6,0.3l0,0c-2.5-0.8-3.2-0.7-5.8,0c-1.3,0.2-2.7,0.3-4.1,0.1
					c0.1-0.6,0.1-1.2,0.2-1.7v-0.2c0.4,0,0.6,0,0.8,0.4c0.4,1,2-1.1,2.4,0s2-1.2,2.4-0.1c0.2,0.5,0.6,0.5,1.2,0.4l0.4-1.4
					c-0.8,0.2-1.5,0.2-1.7-0.3c-0.4-0.9-2,1-2.3,0.1s-2.1,1.1-2.5,0c-0.1-0.4-0.3-0.4-0.7-0.4c0-0.1,0-1.1,0-1.1
					c0.5-0.1,0.8-0.2,1,0.3c0.4,1,2.1-1.1,2.5,0s2.1-1.2,2.5-0.1c0.2,0.5,0.8,0.5,1.4,0.3l0.4-1.4c-0.8,0.2-1.7,0.4-1.9-0.2
					c-0.3-0.9-2.1,1-2.4,0.1s-2.2,1.1-2.5,0c-0.2-0.5-0.5-0.4-1.1-0.3c0,0-0.1-0.9-0.1-1c0.7-0.2,1.3-0.4,1.5,0.2
					c0.3,1,2.1-1.1,2.5,0s2.2-1.2,2.6-0.1c0.2,0.6,0.9,0.5,1.6,0.2l0.4-1.4c-0.8,0.3-1.8,0.6-2-0.1c-0.3-0.9-2.2,1-2.6,0.1
					s-2.2,1.2-2.6,0c-0.2-0.7-1.1-0.4-1.8-0.1c-0.1-0.2-0.1-0.3-0.1-0.4l0.6-0.7l-0.7,0.1c-0.2,0-0.5,0.1-1.2,0.1
					c-2.4,0.3-6.8,0.8-6.8,1.6s0.4,0.8,0.4,0.8l0,0c0.2,0,0.3-0.1,0.5-0.2c0.1-0.1,0.2-0.1,0.4-0.1c0.1,0,0.3,0.1,0.3,0.1
					c0,0.2-0.3,0.3-0.6,0.4s-0.6,0.2-0.6,0.5c0,0.1,0,0.2,0.1,0.3c0,0,0.1,0.1,0.2,0l0,0c0.2,0,0.4-0.1,0.6-0.2
					c0.2-0.1,0.5-0.2,0.7-0.2c0.7,0.1,1.4,0.3,2,0.7c0,0.1,0,0.2-0.1,0.3c-0.6,0.9-1.1,1.8-1.4,2.9c-0.6,1.6-0.9,3.4-0.7,5.1
					c-0.4,0.2-0.8,0.3-1.2,0.4c-0.5,0.1-1.1,0.2-1.7,0.4l18.6,0c0.1-0.3,0.3-0.7,0.5-1c0.1-0.1,0.1-0.3,0.2-0.4
					c0.3-0.6,0.5-1.3,0.6-2c0.1-0.3,0.1-0.5,0.2-0.5s0.3,0.2,0.4,0.6c0.1,0.6,0.3,1.3,0.6,1.9c0.3,0.6,0.8,1.1,1.5,1.4 M14.6,17.8
					c-0.2,0-0.4,0-0.6-0.1c0.1-0.2,0.3-0.3,0.5-0.3c0.2,0,0.4,0,0.6,0.1C15.2,17.6,15,17.8,14.6,17.8L14.6,17.8z"/>
			</g>
		</g>
	</g>
</mask>
<path id="Fill-4" mask="url(#Fill-4_1_)" fill="#F1F3F3" d="M0.1,0.6h39.4V40H0.1V0.6z"/>
<path id="Fill-5" fill="#F1F3F3" d="M39.6,40h7.1v7.1h-7.1V40z"/>
</svg>
