<svg id="Layer_1" data-name="Layer 1" xmlns="http://www.w3.org/2000/svg" xmlns:xlink="http://www.w3.org/1999/xlink" viewBox="0 0 47 48"><defs><style>.cls-1{fill:#060606;}.cls-2{fill:#f1f3f3;}.cls-3{mask:url(#mask);}.cls-4{fill:none;}.cls-5{fill:#788788;}.cls-6{filter:url(#luminosity-noclip);}</style><filter id="luminosity-noclip" x="0.14" y="0.6" width="39.44" height="39.44" filterUnits="userSpaceOnUse" color-interpolation-filters="sRGB"><feFlood flood-color="#fff" result="bg"/><feBlend in="SourceGraphic" in2="bg"/></filter><mask id="mask" x="0.14" y="0.6" width="39.44" height="39.44" maskUnits="userSpaceOnUse"><g class="cls-6"><path class="cls-1" d="M18.6,5.73a1.2,1.2,0,0,0,1.21,1.18h.05a1.18,1.18,0,0,0,.26-2.33V3.8h.74V3.27h-.74v-.7h-.56v.7h-.75V3.8h.75v.78A1.19,1.19,0,0,0,18.6,5.73Z"/><path class="cls-1" d="M12.78,10.47a1,1,0,0,0-.92-.55.91.91,0,0,0-.27,0L13,15.42A44.93,44.93,0,0,1,19.84,15a47.26,47.26,0,0,1,6.9.43L28.09,10a.9.9,0,0,0-.27,0,1,1,0,0,0-.92.55,1.19,1.19,0,0,0,.17.92,1.06,1.06,0,0,0-.75-.38c-.29,0-.55.36-.67.81s0,.81.32.81a1.62,1.62,0,0,0,.83-.37c-.05.17-.35,1.42-1,1.42l-1-.12c-.65,0-.91-1.3-1-1.45a1.93,1.93,0,0,0,.8.4c.29,0,.58-.31.65-.76s-.1-.89-.39-.89a1.75,1.75,0,0,0-.91.4,2.06,2.06,0,0,0,.6-1c0-.3-.25-.55-.68-.55a.83.83,0,0,0-.85.55,1.47,1.47,0,0,0,.29,1c-.2-.2-.5-.56-.79-.56s-.58.46-.65.91.16.73.44.73a1.35,1.35,0,0,0,.85-.23l0,.08c-.09.28-.43,1.21-1,1.21l-1,0c-.61,0-.91-1.19-1-1.42V11.9a1.46,1.46,0,0,0,.86.39c.29,0,.52-.36.52-.81s-.23-.81-.52-.81a1.46,1.46,0,0,0-.85.39,1.7,1.7,0,0,0,.44-1c0-.3-.34-.55-.76-.55h0c-.42,0-.76.25-.76.55a1.7,1.7,0,0,0,.44,1,1.46,1.46,0,0,0-.85-.39c-.29,0-.52.37-.52.81s.23.81.52.81a1.46,1.46,0,0,0,.86-.39v.05c-.07.22-.37,1.42-1,1.42l-1,0c-.58,0-1-1-1-1.24l0-.08a1.3,1.3,0,0,0,.83.24c.29,0,.53-.29.46-.74s-.36-.88-.65-.88-.59.33-.79.53a1.47,1.47,0,0,0,.29-1,.83.83,0,0,0-.85-.55c-.42,0-.72.25-.68.55a2.06,2.06,0,0,0,.6,1,1.71,1.71,0,0,0-.91-.38c-.29,0-.46.43-.39.87s.36.8.65.8.8-.43.8-.43-.27,1.47-.92,1.47l-1,.12c-.64,0-.94-1.25-1-1.42a1.63,1.63,0,0,0,.84.37c.29,0,.44-.36.31-.81s-.39-.81-.68-.81a1.06,1.06,0,0,0-.75.38A1.18,1.18,0,0,0,12.78,10.47Zm14.5,1.15h0Zm-14.72,0h0Z"/><path class="cls-1" d="M11.49,9.6a1.05,1.05,0,0,1,.82,0l-.11-.34a.57.57,0,0,1,.4-.74,6.66,6.66,0,0,1,2.43,0l.19.87a1.29,1.29,0,0,1,.95,0l-.21-1a.55.55,0,0,1,.52-.64A8.57,8.57,0,0,1,19,8.09s.26,0,.27.23,0,1,0,1a1.2,1.2,0,0,1,.54-.14,1.07,1.07,0,0,1,.51.13l.07-1c0-.17.26-.2.26-.2a9,9,0,0,1,2.54-.28c.61.12.52.61.52.61l-.22,1a1.3,1.3,0,0,1,1,0l.2-.9a6.62,6.62,0,0,1,2.42,0,.57.57,0,0,1,.4.74l-.09.34a1,1,0,0,1,.82,0l.12-.44c.37-1.35-1.28-1.56-1.77-1.57a8.17,8.17,0,0,0-1.91.09C24.29,7,23,7,22.6,7a12.7,12.7,0,0,0-2.77.43A12.58,12.58,0,0,0,17.07,7c-.4,0-1.68,0-2,.72a8.11,8.11,0,0,0-1.91-.1c-.49,0-2.13.22-1.77,1.57Z"/><path class="cls-1" d="M26.41,29.53a9,9,0,0,1,.46-1c.07-.15.14-.27.17-.36a8.39,8.39,0,0,0,.64-2c.06-.32.09-.47.22-.48s.31.18.39.64a10.74,10.74,0,0,0,.58,1.88,2.45,2.45,0,0,0,1.46,1.37h0a5.59,5.59,0,0,0,1.73.39,2.49,2.49,0,0,0,.11-.39c.15-.59.39-1.66.39-1.69v0h0c0-.11-.3-.15-.69-.21-.65-.1-1.59-.26-1.84-.87-.53-1.31-1-1.81-2-1.82a.74.74,0,0,0-.57.26l0,0c-2.47-.8-3.24-.72-5.75,0a13.39,13.39,0,0,1-4.07.12c.08-.61.14-1.18.18-1.72v-.24c.42-.05.64,0,.78.37.38,1,2-1.08,2.41-.05s2-1.16,2.37-.13c.16.46.61.52,1.25.39l.38-1.4c-.79.18-1.48.21-1.66-.27-.36-.94-2,1-2.32.13s-2.08,1.14-2.46.05c-.12-.36-.31-.4-.69-.37,0-.07,0-1.07,0-1.07.53-.12.83-.2,1,.32.39,1,2.07-1.15,2.47-.05s2.06-1.23,2.47-.13c.2.55.76.51,1.44.32l.38-1.41c-.81.22-1.66.35-1.86-.2-.33-.93-2.09,1-2.42.13s-2.16,1.09-2.52.05c-.19-.55-.54-.44-1.09-.31,0,0-.11-.88-.12-.95.68-.24,1.33-.43,1.53.18.34,1,2.14-1.13,2.53-.05s2.25-1.17,2.62-.13c.22.62.89.48,1.57.24l.38-1.41c-.77.26-1.75.57-2-.11-.32-.92-2.24,1-2.57.13s-2.19,1.2-2.58.05c-.23-.68-1.07-.36-1.78-.09-.06-.18-.1-.34-.11-.35l.59-.71-.7.07c-.2,0-.53.07-1.21.15-2.36.28-6.75.79-6.82,1.56s.44.83.44.83h0A2.45,2.45,0,0,0,10,19a1.85,1.85,0,0,1,.36-.14c.15,0,.27.07.28.15,0,.24-.3.34-.6.44s-.6.2-.6.45a.41.41,0,0,0,.12.31.2.2,0,0,0,.16.05,1.28,1.28,0,0,0,.62-.22,1.48,1.48,0,0,1,.74-.25,7.44,7.44,0,0,1,2,.66c0,.1,0,.16-.14.28a9.36,9.36,0,0,0-1.43,2.87,11.62,11.62,0,0,0-.72,5.1,4.11,4.11,0,0,1-1.23.42c-.53.12-1.15.25-1.73.43-1,.3-1.86.71-1.86,1.31a2.06,2.06,0,0,0,.71,1.54,7.91,7.91,0,0,0,2.07,1.3,23.31,23.31,0,0,0,2.87,1.2,3.33,3.33,0,0,0,.89.21,10.75,10.75,0,0,0,2.36-.81h0v0a6.56,6.56,0,0,0-1.42-.91h0a.58.58,0,0,0-.36.18l-.18.14-.05-.14a.93.93,0,0,1,0-.19.14.14,0,0,0,0-.11l-.14,0h0l-.16.1a.79.79,0,0,1-.47.16c-.42,0-1.26-.3-2.92-1.67l-.07-.06a.47.47,0,0,1,.27-.15h3.75a.82.82,0,0,0,.47-.2.5.5,0,0,1,.17-.1,2.73,2.73,0,0,0,1.59.47,31.89,31.89,0,0,0,4.91-.62c.39,0,.53.27.66.46a2,2,0,0,0,1,1.07,4.6,4.6,0,0,0,1.53.48,5.45,5.45,0,0,0,.65.05h.68a6.08,6.08,0,0,0,1.7-.3,4.21,4.21,0,0,1,.77-.17l.31.17c.91.5,3.33,1.82,4.21,1.83a7.58,7.58,0,0,0,2.23-.9v0h0a8.5,8.5,0,0,0-1.63-.94c-.12,0-.17,0-.24.13a1.33,1.33,0,0,1-.32.29s-.3.07-.26,0l0,0a1.34,1.34,0,0,0,.14-.32h0a1.18,1.18,0,0,0-.43-.13,4,4,0,0,1-1.7-.68,2.35,2.35,0,0,1-1-1.13c-.13-.28-.21-.46-.65-.46a.86.86,0,0,0-.5.13.77.77,0,0,1-.44.12.7.7,0,0,1-.5-.21.62.62,0,0,1-.2-.41,2,2,0,0,1,.13-.62ZM14.54,17.38a1.07,1.07,0,0,1,.64.1c0,.12-.19.26-.54.33a1,1,0,0,1-.64-.1A.93.93,0,0,1,14.54,17.38Z"/></g></mask></defs><title>Artboard 1</title><path id="Fill-1" class="cls-2" d="M9,42.14h1.65l1.64,3.3h0l0-3.3h1.18V47H11.82l-1.7-3.32h0l0,3.32H9V42.14"/><path id="Fill-2" class="cls-2" d="M17.73,42.14H19.1l1.08,3.81h0l1.08-3.81h1.33L21,47h-1.6l-1.63-4.85"/><path id="Fill-3" class="cls-2" d="M27.27,42.14h3.42v.92H28.57v1h2V45h-2v1.1h2.2V47h-3.5V42.14"/><g class="cls-3"><path id="Fill-4" class="cls-2" d="M.14.6H39.58V40H.14Z"/></g><path id="Fill-5" class="cls-2" d="M39.61,40h7.1v7.1h-7.1Z"/><path class="cls-4" d="M14.65,17.81c.34-.07.51-.21.54-.33a1.07,1.07,0,0,0-.64-.1.93.93,0,0,0-.53.32A1,1,0,0,0,14.65,17.81Z"/><polygon class="cls-5" points="32.35 32.87 32.35 32.87 32.35 32.87 32.35 32.87"/><polygon class="cls-5" points="9.76 20.25 9.76 20.25 9.75 20.25 9.76 20.25"/></svg>