<?xml version="1.0" encoding="utf-8"?>
<!-- Generator: Adobe Illustrator 21.1.0, SVG Export Plug-In . SVG Version: 6.00 Build 0)  -->
<svg version="1.1" id="Vegvesen_logo_svart" xmlns="http://www.w3.org/2000/svg" xmlns:xlink="http://www.w3.org/1999/xlink"
	 x="0px" y="0px" width="456.4px" height="238.1px" viewBox="0 0 456.4 238.1" enable-background="new 0 0 456.4 238.1"
	 xml:space="preserve">
<title>Artboard 1</title>
<path fill="#F1F3F3" d="M2.5,218c3,1.5,6.3,2.3,9.7,2.3c3,0,5.8-0.6,5.8-3.4c0-6.5-16.6-2.4-16.6-15.2c0-8.5,8.3-10.8,15.4-10.8
	c3,0,6.1,0.4,9,1.3l-0.6,7.3c-2.4-1.1-5.1-1.7-7.8-1.6c-2.3,0-6.3,0.2-6.3,3.3c0,5.7,16.7,1.9,16.7,14.6c0,9.1-7.6,11.6-15.5,11.6
	c-3.6,0-7.1-0.5-10.5-1.5L2.5,218"/>
<path fill="#F1F3F3" d="M30.5,200.4h5.3v-5.9l8.9-2.8v8.7h6.4v6.4h-6.4v9.7c0,3.2,0.8,4.8,3.6,4.8c0.9,0,1.9-0.1,2.8-0.3l0.3,5.9
	c-1.9,0.3-3.8,0.5-5.7,0.5c-8.1,0-10.1-3.6-10.1-9.8v-10.7h-5.2L30.5,200.4"/>
<path fill="#F1F3F3" d="M72.4,226.7c-0.1-1.4-0.2-2.8-0.2-4.1h-0.1c-2.1,3.3-4.6,4.7-8.3,4.7c-5.2,0-9.8-2.6-9.8-8.3
	c0-8,8.7-9,13.6-9c1.4,0,2.9,0.1,4.3,0.4c-0.1-3.6-2.7-4.6-6-4.6c-2.9-0.1-5.8,0.6-8.3,2l-0.2-6.2c3.4-1.3,6.9-1.9,10.5-1.9
	c6.7,0,12.5,2.9,12.5,10.9v9.8c0,2.1,0.1,4.2,0.5,6.2L72.4,226.7 M66.1,221.2c3.4,0,5.6-3.1,5.6-6.2c-1.2-0.1-2.5-0.1-3.8-0.1
	c-3.1,0-5.5,0.9-5.5,3.5C62.4,220.1,64,221.2,66.1,221.2z"/>
<path fill="#F1F3F3" d="M83.7,200.4H89v-5.9l9-2.8v8.7h6.3v6.4H98v9.7c0,3.2,0.7,4.8,3.6,4.8c0.9,0,1.9-0.1,2.8-0.3l0.3,5.9
	c-1.9,0.3-3.8,0.5-5.7,0.5c-8.1,0-10.1-3.6-10.1-9.8v-10.7h-5.3L83.7,200.4"/>
<path fill="#F1F3F3" d="M116.3,216.2c0.5,3.6,3.3,5,7.7,5c2.8,0,5.5-0.7,8-2v6.4c-3.1,1.1-6.3,1.7-9.6,1.7
	c-8.7,0-15.3-5.1-15.3-13.8s5.9-13.7,14.1-13.7c9.7,0,13.3,6.9,13.3,14.7v1.7L116.3,216.2 M126.3,211c0-3-1.4-5.5-5-5.5
	c-3.3,0-4.8,2.5-5,5.5H126.3z"/>
<path fill="#F1F3F3" d="M139.2,200.4h8.3v4.8h0.1c1.8-3.8,5.4-5.4,9.6-5.4c7.2,0,10.1,5.1,10.1,10.5v16.4h-9.1V214
	c0-4.9-1.7-6.6-4.2-6.6c-3.7,0-5.6,2.6-5.6,8.2v11.1h-9.1L139.2,200.4"/>
<path fill="#F1F3F3" d="M172.4,219.4c2.7,1.1,5.6,1.8,8.5,1.8c1.9,0,3.7-0.3,3.7-2.1c0-4.4-12.9-1.3-12.9-10.8c0-6,6-8.5,11.2-8.5
	c3.1-0.1,6.3,0.4,9.2,1.5l-0.7,6.3c-2.2-1.2-4.6-1.8-7.1-1.8c-2,0-4.2,0.4-4.2,1.8c0,4.1,13.5,0.9,13.5,10.9c0,7-6.3,8.8-12.3,8.8
	c-3.3,0.1-6.5-0.3-9.6-1.3L172.4,219.4"/>
<polyline fill="#F1F3F3" points="211.2,200.4 220.9,200.4 226.4,219.1 226.5,219.1 232,200.4 241,200.4 231.3,226.7 220.9,226.7 
	211.2,200.4 "/>
<path fill="#F1F3F3" d="M252.3,216.2c0.5,3.6,3.3,5,7.7,5c2.8,0,5.5-0.7,8-2v6.4c-3.1,1.1-6.3,1.7-9.6,1.7
	c-8.7,0-15.3-5.1-15.3-13.8s5.9-13.7,14-13.7c9.7,0,13.3,6.9,13.3,14.7v1.7L252.3,216.2 M262.3,211c0-3-1.4-5.5-5-5.5
	c-3.3,0-4.8,2.5-5,5.5H262.3z"/>
<path fill="#F1F3F3" d="M303,223.6c0,10.8-5.2,14.3-15.8,14.3c-3.4,0-6.8-0.6-10.1-1.6l0.5-7.2c2.7,1.5,5.8,2.2,8.9,2.2
	c5.2,0,8-2.5,8-7.6v-1.4h-0.1c-2,2.9-5.3,4.6-8.8,4.5c-7.2,0-11.7-5.4-11.7-13.2s3.7-13.7,11.9-13.7c3.7,0,7.1,2.1,8.9,5.4h0.1v-4.7
	h8.2V223.6 M288.4,219.7c3.2,0,5.8-2.7,5.8-6.7c0-2.9-1.7-6.2-5.8-6.2c-3.4,0-5.1,3-5.1,6.6C283.3,217.4,285.7,219.7,288.4,219.7
	L288.4,219.7z"/>
<polyline fill="#F1F3F3" points="306.6,200.4 316.3,200.4 321.8,219.1 321.9,219.1 327.4,200.4 336.4,200.4 326.6,226.7 
	316.3,226.7 306.6,200.4 "/>
<path fill="#F1F3F3" d="M347.6,216.2c0.5,3.6,3.3,5,7.8,5c2.8,0,5.5-0.7,8-2v6.4c-3.1,1.1-6.3,1.7-9.6,1.7
	c-8.7,0-15.3-5.1-15.3-13.8s5.9-13.7,14.1-13.7c9.7,0,13.3,6.9,13.3,14.7v1.7L347.6,216.2 M357.6,211c0-3-1.4-5.5-5.1-5.5
	c-3.3,0-4.8,2.5-5.1,5.5H357.6z"/>
<path fill="#F1F3F3" d="M370,219.4c2.7,1.1,5.6,1.8,8.5,1.8c1.9,0,3.7-0.3,3.7-2.1c0-4.4-12.9-1.3-12.9-10.8c0-6,5.9-8.5,11.2-8.5
	c3.1-0.1,6.3,0.4,9.2,1.5l-0.7,6.3c-2.1-1.2-4.6-1.8-7-1.8c-2,0-4.2,0.4-4.2,1.8c0,4.1,13.5,0.9,13.5,10.9c0,7-6.3,8.8-12.2,8.8
	c-3.2,0.1-6.4-0.3-9.5-1.3L370,219.4"/>
<path fill="#F1F3F3" d="M403.7,216.2c0.5,3.6,3.3,5,7.7,5c2.8,0,5.5-0.7,8-2v6.4c-3.1,1.1-6.3,1.7-9.6,1.7
	c-8.6,0-15.3-5.1-15.3-13.8s5.9-13.7,14.1-13.7c9.8,0,13.3,6.9,13.3,14.7v1.7L403.7,216.2 M413.7,211c0-3-1.4-5.5-5-5.5
	c-3.3,0-4.9,2.5-5.1,5.5H413.7z"/>
<path fill="#F1F3F3" d="M426.6,200.4h8.3v4.8h0.1c1.8-3.8,5.4-5.4,9.6-5.4c7.2,0,10,5.1,10,10.5v16.4h-9.1V214
	c0-4.9-1.7-6.6-4.2-6.6c-3.8,0-5.6,2.6-5.6,8.2v11.1h-9.1L426.6,200.4"/>
<path fill="#F1F3F3" d="M262.7,65.2l6.3-25.8c0-2.3-0.7-4.5-2-6.3c-5.3-6.9-15-4.5-20.8-2.9c-2.7-1.7-5.9-2.4-9.1-1.8l0,0l-1.8,0.3
	c1.7-3.8,0-8.3-3.8-10.1v-1.8h3.5v-6.5h-3.5V6.9h-6.6v3.4h-3.6v6.5h3.6v1.8c-3.8,1.8-5.5,6.2-3.9,10.1l-1.8-0.3
	c-3.2-0.6-6.4,0-9.1,1.8c-5.8-1.6-15.4-4-20.8,2.9c-1.3,1.8-2,4-2,6.3l6.3,25.8H262.7z M191.2,34.3c4.4-5.7,13.4-3.4,19.2-1.7
	c3.7-3.1,9.4-2.1,13.6-1c0.4,0.2,0.9,0,1.1-0.4c0.1-0.3,0-0.7-0.2-0.9c-2.5-1.8-3.1-5.3-1.3-7.8c0,0,0-0.1,0.1-0.1
	c0.7-1,1.8-1.8,3-2.1v-5.2h-3.6v-3h3.6V8.8h3v3.4h3.6v3h-3.6v5.2c3,0.9,4.7,4,3.9,7c-0.3,1.2-1,2.2-2,2.9c-0.3,0.2-0.4,0.6-0.3,1
	c0.3,0.4,0.8,0.6,1.2,0.4c4.2-1,9.7-2.1,13.4,1c5.8-1.6,14.8-4,19.2,1.7c1,1.5,1.6,3.1,1.7,4.9L261,63h-65.8l-5.7-23.8
	C189.6,37.4,190.2,35.7,191.2,34.3z M230.8,38.9c0.3,0.9,0.1,1.8-0.5,2.5c-0.4,0.6-1.1,1.3-0.8,1.9c0.1,0.3,0.3,0.5,0.6,0.5
	c0.5,0.1,1-0.3,1.5-0.7l0.9-0.6c0.6-0.2,1.2,0,1.5,0.5c0.5,1.1,0.6,2.4,0.2,3.5c-0.6,1.1-1.5,0.7-2.6,0.1c-0.4-0.3-0.9-0.5-1.4-0.6
	c-0.7,0-1,1.2-1,1.8c0.1,2.3,1.5,4.3,3.6,5.2c1.4,0.6,3,0.9,4.5,0.8c1.5,0,3.1-0.3,4.5-0.8c2.1-0.9,3.5-2.9,3.6-5.2
	c0-0.6-0.2-1.8-1-1.8c-0.5,0.1-1,0.3-1.4,0.6c-1.1,0.6-2,1-2.6-0.1c-0.4-1.1-0.3-2.4,0.2-3.5c0.3-0.5,0.9-0.7,1.5-0.5
	c0.3,0.2,0.6,0.4,0.9,0.6c0.5,0.4,1,0.8,1.5,0.7c0.3,0,0.5-0.2,0.6-0.5c0.2-0.6-0.5-1.3-0.8-1.9c-0.6-0.7-0.8-1.6-0.5-2.5
	c0.3-0.5,0.9-0.7,1.5-0.7h0.3c-0.2-2.2-1.9-4.1-4.1-4.4c-2.7-0.6-5.4-0.6-8.1,0c-2.2,0.3-3.9,2.1-4.1,4.3h0.3
	C230.1,38.2,230.5,38.5,230.8,38.9L230.8,38.9z M232.5,36c1.5-0.5,3.1-0.8,4.7-0.8c1.6,0,3.3,0.2,4.8,0.8c0.4,0.2,0.8,0.6,1,1
	c-0.4,0.2-0.8,0.5-1.1,0.8c-0.3,0.4-0.5,0.9-0.5,1.4c0,0.5,0.1,1,0.3,1.4c-0.7-0.2-1.5-0.1-2.2,0.3c-0.7,0.5-1.2,1.3-1.3,2.2
	c-0.3,1.9-0.2,4.6,1.6,5.6c1.1,0.4,2.3,0.3,3.3-0.4c-0.2,0.9-0.8,1.7-1.5,2.3c-2.8,1.6-6.1,1.6-8.9,0c-0.7-0.6-1.3-1.4-1.5-2.3
	c0.9,0.7,2.2,0.9,3.3,0.4c1.9-1,2-3.8,1.6-5.6c-0.1-0.9-0.6-1.7-1.3-2.2c-0.7-0.4-1.5-0.5-2.2-0.3c0.2-0.4,0.3-0.9,0.3-1.4
	c0-0.5-0.1-1-0.5-1.4c-0.3-0.4-0.7-0.7-1.1-0.8C231.6,36.6,232,36.2,232.5,36L232.5,36z M265.4,73.3v-0.2c-0.8-1.7-2.5-2.7-4.3-2.7
	h-65.8c-1.8,0.1-3.4,1.1-4.2,2.7l-0.1,0.2l-0.1,0.2c-0.6,1.8-0.3,3.8,0.8,5.4l30.9,55.9c0.9,1.5,2.3,4,5.4,4h0.1
	c3.1-0.1,4.6-2.6,5.5-4.1l30.9-55.9C265.6,77.2,265.9,75.2,265.4,73.3L265.4,73.3z M262.5,77.5l-30.1,54.6c-1,1.5-2.4,4.1-4.2,4.1
	s-3.3-2.6-4.2-4.1l-30.1-54.6c-0.7-1-1-2.3-0.6-3.5c0.4-0.8,1.2-1.3,2.1-1.3H261c0.9,0,1.7,0.5,2.1,1.3
	C263.4,75.2,263.2,76.5,262.5,77.5z M245,85.5L245,85.5c-0.5-1.2-1.7-2.1-3.1-2.1h-27.6c-1.2,0-2.3,0.7-2.9,1.8l-0.1,0.2l-0.1,0.3
	c-0.3,1.2-0.1,2.4,0.5,3.4l12.9,23.3c0.7,1.9,2.8,2.9,4.7,2.3c0.1,0,0.1,0,0.2-0.1c1-0.4,1.8-1.2,2.2-2.2l12.9-23.3
	c0.7-1,0.9-2.3,0.6-3.5L245,85.5z M242.5,87.8l-12.6,22.9c-0.4,0.6-0.9,1.7-1.8,1.7s-1.4-1.1-1.8-1.7l-12.7-22.9
	c-0.3-0.4-0.4-0.9-0.3-1.4c0.2-0.3,0.5-0.6,0.9-0.6h27.6c0.4,0,0.7,0.2,0.9,0.6C242.9,86.9,242.8,87.4,242.5,87.8z M334.9,78.6
	c-0.6-1.1-1.7-1.8-3-1.8h-27.6V0.6H152v76.2h-27.8c-1.3-0.1-2.5,0.6-3,1.8c-0.2,0.4-0.2,0.8-0.2,1.2c0,0.8,0.3,1.7,0.9,2.3
	l18.5,20.8c1,1.2,2.5,1.9,4.1,1.9h7.6V153h152.3v-48.1h7.3c1.6,0,3-0.7,4-1.9l18.5-21c0.6-0.6,0.9-1.4,1-2.3
	C335.2,79.3,335.1,78.9,334.9,78.6z M144.5,102.4c-0.9,0-1.7-0.4-2.3-1.1l-4.9-5.5h31.1c1.2,0,1.3-2.2-0.1-2.2h-33.1l-5.1-5.7h42.3
	c0.6-0.1,1.1-0.6,1-1.2c-0.1-0.5-0.5-0.9-1-1H128l-4.5-5.1c-0.6-0.7-0.4-1.3,0.5-1.3h56.8c1.1,0.1,1.3,0.3,2.1,1.8s3,5.2,3.6,6.3
	s0.9,2.1-0.3,4.1s-6,10.4-6.9,11.9s-2,4.7,1.7,4.7h17.4c1.6,0,2.2,0.3,2.9,1.6s7.7,13.7,7.7,13.7c3,4.3,1.1,7.9-3.9,7.7
	c-6.3-0.2-5.4-6.4-5.5-7.9c0,0-1.9-2.8-3.7-5.6h-23.5c-9.3,0-6.2-5.8-4.6-9.6c0.8-2-0.5-5.6-6.4-5.6L144.5,102.4z M301.9,150.6
	H154.3v-45.8h7.3c2.8,0,3.7,0.8,3.9,1.3c0.2,0.6,0.2,1.2-0.1,1.7c-0.9,1.9-1.5,3.9-1.7,6c0,1.1,0.3,2.2,0.9,3.1c1.3,2,3.9,3,7.9,3
	h22.3l2.6,3.9v0.1c0,6,2.6,9.2,7.8,9.4c3.3,0.1,5.8-1.1,7.1-3.3s0.9-5.3-1.1-8.1l-7.6-13.4c-1.2-2.4-2.9-2.9-5-2.9H181
	c0.1-0.4,0.3-0.8,0.5-1.1l4.5-7.8l2.4-4.1c0.7-1.1,1.1-2.3,1.1-3.6c0-1-0.3-2-0.8-2.8c-0.6-1.3-2.8-5.1-3.6-6.5v-0.1
	c-1-1.7-2-2.8-3.9-2.9h-26.9V3h147.6v73.8h-27c-1.9,0.1-2.9,1.2-3.9,2.9v0.1c-0.8,1.4-3,5.2-3.6,6.5c-0.5,0.8-0.8,1.8-0.8,2.8
	c0,1.2,0.4,2.5,1.1,3.5l2.4,4.1l4.5,7.8c0.2,0.3,0.4,0.7,0.5,1.1h-17.6c-2.1,0-3.8,0.5-5,2.9l-7.6,13.4c-2,2.9-2.4,5.8-1.1,8.1
	s3.8,3.4,7.1,3.3c5.2-0.2,7.8-3.4,7.8-9.4v-0.1l2.6-3.9h22.3c4,0,6.6-1,7.9-3c0.6-0.9,0.9-2,0.9-3.1c-0.2-2.1-0.7-4.1-1.7-6
	c-0.3-0.5-0.3-1.1-0.1-1.7c0.3-0.5,1.1-1.3,3.9-1.3h7.5L301.9,150.6z M332.4,80.4l-4.5,5.1h-44.4c-0.6,0.1-1.1,0.6-1,1.2
	c0.1,0.5,0.5,0.9,1,1h42.4l-5.1,5.7h-33.1c-1.4,0-1.2,2.2-0.1,2.2h31.1l-4.9,5.5c-0.6,0.7-1.4,1.1-2.3,1.1h-17.2
	c-5.8,0-7.2,3.5-6.4,5.6c1.6,3.8,4.7,9.6-4.6,9.6H260c-1.9,2.7-3.7,5.6-3.7,5.6c-0.1,1.5,0.8,7.6-5.5,7.9c-5,0.2-6.9-3.4-3.9-7.7
	c0,0,7-12.4,7.7-13.7s1.3-1.6,2.9-1.6H275c3.7,0,2.6-3.3,1.7-4.7s-5.7-9.8-6.9-11.9s-0.9-2.9-0.3-4.1s2.7-4.9,3.5-6.3s1-1.7,2.1-1.8
	h56.8C332.9,79.2,333,79.8,332.4,80.4z M212.5,38.9c0.3,0.9,0.1,1.8-0.5,2.5c-0.4,0.6-1.1,1.3-0.8,1.9c0.1,0.3,0.3,0.5,0.6,0.5
	c0.5,0.1,1-0.3,1.5-0.7l0.9-0.6c0.6-0.2,1.2,0,1.5,0.5c0.5,1.1,0.6,2.4,0.2,3.5c-0.6,1.1-1.5,0.7-2.6,0.1c-0.4-0.3-0.9-0.5-1.4-0.6
	c-0.7,0-1,1.2-1,1.8c0,2.3,1.4,4.4,3.6,5.3c1.4,0.6,3,0.9,4.5,0.8c1.5,0,3.1-0.3,4.5-0.8c2.1-0.9,3.5-3,3.6-5.3c0-0.6-0.2-1.8-1-1.8
	c-0.5,0.1-1,0.3-1.4,0.6c-1.1,0.6-2,1-2.6-0.1c-0.4-1.1-0.3-2.4,0.2-3.5c0.3-0.5,0.9-0.7,1.5-0.5c0.3,0.2,0.6,0.4,0.9,0.6
	c0.5,0.4,1,0.8,1.5,0.7c0.3,0,0.5-0.2,0.6-0.5c0.2-0.6-0.5-1.3-0.8-1.9c-0.6-0.7-0.8-1.6-0.5-2.5c0.3-0.5,0.9-0.7,1.5-0.7h0.3
	c-0.1-2.3-1.9-4.2-4.2-4.4c-2.7-0.6-5.4-0.6-8.1,0c-2.2,0.3-4,2.1-4.1,4.4h0.3C211.7,38.2,212.2,38.4,212.5,38.9z M214.2,36
	c3-1.1,6.4-1.1,9.4,0c0.5,0.2,0.8,0.6,1.1,1c-0.4,0.2-0.8,0.5-1.1,0.8c-0.3,0.4-0.5,0.9-0.5,1.4c0,0.5,0.1,1,0.3,1.4
	c-0.7-0.2-1.5-0.1-2.2,0.3c-0.7,0.5-1.2,1.3-1.3,2.2c-0.3,1.9-0.2,4.6,1.6,5.6c1.1,0.4,2.3,0.3,3.3-0.4c-0.2,0.9-0.8,1.7-1.5,2.3
	c-2.8,1.6-6.1,1.6-8.9,0c-0.7-0.6-1.2-1.4-1.5-2.3c0.9,0.7,2.2,0.9,3.3,0.4c1.9-1,2-3.8,1.6-5.6c-0.1-0.9-0.6-1.7-1.3-2.2
	c-0.7-0.4-1.5-0.5-2.2-0.3c0.2-0.4,0.3-0.9,0.3-1.4c0-0.5-0.1-1-0.5-1.4c-0.3-0.4-0.7-0.7-1.1-0.8C213.3,36.6,213.7,36.2,214.2,36z
	 M207.1,51.4c1.2-1.3,1.6-3.1,1.3-4.8c-0.2-1.1-1.6-0.6-2.4-0.1c-0.5,0.4-1.1,0.6-1.7,0.5c-0.4-0.1-0.7-0.6-0.8-0.8
	c-0.4-1.2-0.3-2.5,0.4-3.6c0.3-0.3,0.6-0.4,1-0.3c0.5,0.1,1,0.3,1.4,0.7c0.6,0.5,1.5,1,2,0.3s-0.1-1.4-0.6-2
	c-0.5-0.5-0.7-1.1-0.8-1.8c0-0.9,0.7-1.6,1.6-1.6c0,0,0,0,0,0h0.2v-0.2c0-1,0.2-1.9,0.5-2.8c-3.5-1.1-7.1-1.5-10.7-1.3
	c-3.8,0.4-6.1,1.9-7,4.2c0.6,0.1,1.2,0.2,1.8,0.4c0.7,0.3,1.1,0.9,1.2,1.6c-0.1,0.5-0.3,1-0.6,1.5c-0.3,0.5-1,1.4-0.7,1.9
	c0.5,0.9,1.4,0.2,2-0.3c0.3-0.3,0.7-0.5,1.1-0.6c0.5-0.2,1.1,0,1.4,0.4c0.7,1.2,0.7,2.7,0.1,4c-0.7,0.6-1.3,0.2-2.1-0.2
	c-0.5-0.3-1-0.5-1.6-0.6c-0.3-0.1-0.9,0-0.9,1c0.1,2.6,1.2,4.8,3.6,5.8C199.9,54.3,204.5,54.1,207.1,51.4L207.1,51.4z M195.1,48.5
	c0.8,0.6,1.8,0.8,2.8,0.6c1.1-0.5,1.9-1.6,2.1-2.8c0.3-2.3-0.3-4.3-1.5-5.2c-0.7-0.4-1.4-0.6-2.2-0.4c0.1-0.4,0.2-0.8,0.2-1.2
	c0-0.2,0-0.5-0.1-0.7c-0.3-0.8-0.9-1.5-1.8-1.7c3.3-2,7.9-1.3,11.8-0.8l0.4,0.1v0.5c-1,0.3-1.7,1.1-1.8,2.1v0.5
	c0,0.4,0.1,0.8,0.3,1.2c-0.8-0.3-1.8-0.1-2.4,0.5c-1.2,1.5-1.6,3.5-1.1,5.4c0.2,0.9,0.8,1.7,1.6,2.2c1.1,0.4,2.3,0.3,3.2-0.4
	c-0.2,1.5-1.9,2.6-2.5,2.9c-1.9,0.8-4,0.9-5.9,0.2C196.8,50.9,195.7,49.8,195.1,48.5L195.1,48.5z M247.4,38h0.2
	c0.9,0,1.6,0.7,1.6,1.6c0,0,0,0,0,0c0,0.7-0.3,1.3-0.8,1.8c-0.4,0.6-1.1,1.4-0.6,2s1.4,0.1,2-0.3c0.4-0.4,0.9-0.6,1.4-0.7
	c0.4-0.1,0.7,0,1,0.3c0.6,1.1,0.7,2.4,0.4,3.6c-0.1,0.2-0.4,0.8-0.8,0.8c-0.6,0.1-1.2-0.1-1.7-0.5c-0.8-0.4-2.1-0.9-2.3,0.1
	c-0.3,1.7,0.1,3.5,1.3,4.8c2.6,2.7,7.2,2.9,10.4,1.5c2.3-1,3.7-3.3,3.6-5.8c0-0.9-0.6-1-0.9-1c-0.6,0.1-1.1,0.3-1.6,0.6
	c-0.8,0.3-1.4,0.8-2.1,0.2c-0.6-1.3-0.6-2.8,0.1-4c0.3-0.4,0.9-0.6,1.4-0.4c0.4,0.2,0.7,0.4,1.1,0.6c0.6,0.5,1.5,1.1,2,0.3
	c0.3-0.5-0.3-1.3-0.7-1.9c-0.3-0.5-0.5-1-0.6-1.5c0-0.7,0.4-1.4,1.1-1.7c0.6-0.2,1.2-0.3,1.8-0.4c-0.9-2.3-3.2-3.8-7-4.2
	c-3.6-0.3-7.2,0.1-10.6,1.2c0.3,0.9,0.4,1.9,0.5,2.8L247.4,38z M249.3,36.3l0.4-0.1c3.8-0.6,8.5-1.3,11.8,0.8
	c-0.8,0.3-1.5,0.9-1.8,1.7c-0.1,0.2-0.1,0.5-0.1,0.7c0,0.4,0.1,0.8,0.2,1.2c-0.8-0.1-1.5,0-2.2,0.4c-1.2,0.8-1.8,2.9-1.5,5.2
	c0.2,1.2,1,2.3,2.1,2.8c1,0.2,2,0,2.8-0.6c-0.5,1.4-1.7,2.5-3.1,3c-1.9,0.6-4,0.5-5.9-0.2c-0.6-0.3-2.3-1.3-2.5-2.9
	c0.9,0.7,2.1,0.8,3.2,0.4c0.8-0.5,1.4-1.3,1.6-2.2c0.5-1.9,0.1-3.9-1.1-5.4c-0.6-0.6-1.6-0.8-2.4-0.5c0.2-0.4,0.3-0.8,0.3-1.2v-0.5
	c-0.1-1-0.8-1.8-1.8-2.1L249.3,36.3z"/>
</svg>
